<?xml version="1.0" encoding="UTF-8"?>
<svg width="40" height="40" version="1.1" viewBox="0 0 10.583333 10.583334" xmlns="http://www.w3.org/2000/svg" xmlns:cc="http://creativecommons.org/ns#" xmlns:dc="http://purl.org/dc/elements/1.1/" xmlns:rdf="http://www.w3.org/1999/02/22-rdf-syntax-ns#">
 <title>Inner Chapter Brand Icon</title>
 <metadata>
  <rdf:RDF>
   <cc:Work rdf:about="">
    <dc:format>image/svg+xml</dc:format>
    <dc:type rdf:resource="http://purl.org/dc/dcmitype/StillImage"/>
    <dc:title>Inner Chapter Brand Icon</dc:title>
    <dc:creator>
     <cc:Agent>
      <dc:title>David Matthew</dc:title>
     </cc:Agent>
    </dc:creator>
   </cc:Work>
  </rdf:RDF>
 </metadata>
 <g transform="translate(-17.265 -51.437)">
  <g transform="matrix(.27587 0 0 .27587 -67.408 46.629)">
   <circle transform="translate(0 -39.862)" cx="326.12" cy="76.474" r="19.182" fill="#1a1a1a"/>
   <g transform="matrix(.094883 0 0 .094883 306.76 13.347)" fill="#fff">
    <path d="m156.95 95.196v118.49c8.9056-40.703 34.588-76.347 69.187-102.28 7.8125-5.8555 16.305-11.27 25.005-16.213h-94.192zm94.192 75.411c-23.524 21.592-36.012 47.327-36.012 74.529s12.488 52.937 36.012 74.529v-149.06zm-94.192 105.98v118.61h94.192c-8.7765-4.9746-17.129-10.429-25.005-16.332-34.599-25.932-60.282-61.576-69.187-102.28z" fill="#fff"/>
   </g>
  </g>
 </g>
</svg>
