<?xml version="1.0" encoding="UTF-8"?>
<svg width="45" height="45" version="1.1" viewBox="0 0 11.906249 11.90625" xmlns="http://www.w3.org/2000/svg" xmlns:cc="http://creativecommons.org/ns#" xmlns:dc="http://purl.org/dc/elements/1.1/" xmlns:rdf="http://www.w3.org/1999/02/22-rdf-syntax-ns#">
 <title>Record Label</title>
 <metadata>
  <rdf:RDF>
   <cc:Work rdf:about="">
    <dc:format>image/svg+xml</dc:format>
    <dc:type rdf:resource="http://purl.org/dc/dcmitype/StillImage"/>
    <dc:title>Record Label</dc:title>
    <dc:creator>
     <cc:Agent>
      <dc:title>David Matthew</dc:title>
     </cc:Agent>
    </dc:creator>
   </cc:Work>
  </rdf:RDF>
 </metadata>
 <path d="m5.9523-8.2681e-4a5.953 5.953 0 0 0 -5.953 5.953 5.953 5.953 0 0 0 5.953 5.953 5.953 5.953 0 0 0 5.953 -5.953 5.953 5.953 0 0 0 -5.953 -5.953zm0 3.9465a2.0067 2.0067 0 0 1 2.007 2.0065 2.0067 2.0067 0 0 1 -2.007 2.007 2.0067 2.0067 0 0 1 -2.0065 -2.007 2.0067 2.0067 0 0 1 2.0065 -2.0065z" fill="#1a1a1a" stroke-width=".25761"/>
 <circle cx="5.951" cy="5.9536" r=".29662" fill="#1a1a1a" stroke-width=".27478"/>
 <path d="m4.0632 0.31514a5.9531 5.9531 0 0 0 -3.1885 2.5431l0.83874 0.32353 2.9794 1.149-0.49466-3.155z" fill="#4d4d4d" stroke-width=".27478"/>
</svg>
