<?xml version="1.0" encoding="UTF-8"?>
<svg width="54.979" height="29.646" version="1.1" viewBox="0 0 14.546536 7.8437083" xmlns="http://www.w3.org/2000/svg" xmlns:cc="http://creativecommons.org/ns#" xmlns:dc="http://purl.org/dc/elements/1.1/" xmlns:rdf="http://www.w3.org/1999/02/22-rdf-syntax-ns#">
 <title>Sound Design Dial</title>
 <metadata>
  <rdf:RDF>
   <cc:Work rdf:about="">
    <dc:format>image/svg+xml</dc:format>
    <dc:type rdf:resource="http://purl.org/dc/dcmitype/StillImage"/>
    <dc:title>Sound Design Dial</dc:title>
    <dc:creator>
     <cc:Agent>
      <dc:title>David Matthew</dc:title>
     </cc:Agent>
    </dc:creator>
   </cc:Work>
  </rdf:RDF>
 </metadata>
 <path d="m6.913 0.0088183-0.026928 0.0013739-0.10631 0.0079686 0.080483 1.0587 0.092024-0.00706 0.32116-0.00813 0.321 0.00813 0.24576 0.018768 0.080345-1.0587-0.25994-0.019647l-0.026928-0.0013739-0.34699-0.0088479h-0.026654zm-1.4441 0.21694-0.025555 0.006567-0.31993 0.090776-0.025005 0.007969-0.31322 0.106-0.02473 0.00904-0.19661 0.077326 0.38945 0.98775 0.18405-0.07255 0.28915-0.097857 0.29426-0.083519 0.16935-0.039107-0.23873-1.0345zm3.3378 1.027 0.01896 0.00423 0.29462 0.083698 0.28915 0.097857 0.28313 0.11165 0.019509 0.00885 0.43742-0.96739-0.03292-0.014866-0.02391-0.010084-0.30632-0.12068-0.02473-0.00904-0.31319-0.10599-0.025005-0.007969-0.31993-0.090776-0.025554-0.006567-0.032204-0.007446zm-5.2942-0.20615-0.021708 0.013272-0.27357 0.17536-0.021158 0.014316-0.26437 0.18792-0.020334 0.015223-0.25464 0.20013-0.019784 0.016267-0.039458 0.034152 0.69525 0.80247 0.031133-0.026901 0.23323-0.1835 0.24472-0.17377 0.25162-0.16138 0.019784-0.011321-0.52925-0.92032zm7.0698 0.97058 0.16262 0.10422 0.24472 0.17394 0.23499 0.18492 0.14583 0.12634 0.69522-0.80247-0.15588-0.13502-0.01978-0.016267-0.25464-0.20013-0.02033-0.015223-0.26434-0.18792-0.02088-0.014316-0.17449-0.11184zm-8.9128 0.61952-0.016212 0.019647-0.20015 0.25463-0.015113 0.020334-0.18795 0.26437-0.014288 0.02124-0.12566 0.19589 0.8938 0.57314 0.11818-0.18439 0.17377-0.24472 0.1835-0.23322 0.11096-0.12829-0.80247-0.69506zm10.388 0.67508 0.0093 0.011156 0.18402 0.23411 0.17218 0.24207 0.16281 0.25392 0.02418 0.042291 0.92051-0.52925-0.03097-0.053791-0.01319-0.021763-0.17536-0.27357-0.01429-0.02124-0.18792-0.26436-0.01511-0.020334-0.20015-0.25463-0.01594-0.019647-0.01759-0.020004zm-11.48 1.1182-0.009892 0.024071-0.12085 0.30613-0.008793 0.02462-0.10598 0.31319-0.007969 0.025142-0.09076 0.32012-0.006595 0.025472-0.013189 0.057333 1.0344 0.23871 0.00989-0.043 0.08389-0.2955 0.097852-0.28896 0.11593-0.29374-0.29465-0.11626-0.67879-0.30685zm12.468 0.54695 0.06314 0.16014 0.09785 0.28912 0.0837 0.29533 0.04479 0.19341 1.0344-0.23888-0.04792-0.20739-0.0066-0.025472-0.09076-0.32012-0.0077-0.025142-0.10598-0.31319-0.0091-0.02462-0.06815-0.1727zm-13.034 1.909-0.0027478 0.026901-0.008793 0.34699v0.026709l0.008793 0.34699 0.0027478 0.026901 0.0098921 0.13201 1.0587-0.080516-0.00907-0.11767-0.00824-0.321 0.00824-0.32136 0.016762-0.21995-1.0587-0.080513zm13.461-2.501e-4 0.0052 0.066535 0.0082 0.32116-0.0082 0.321-0.01291 0.16899 1.0587 0.080335c0.01814-0.18649 0.01841-0.39159 0.02308-0.55703v-0.026736l-0.0091-0.34699v-0.026901l-0.0063-0.080868z" color="#000000" color-rendering="auto" dominant-baseline="auto" fill="#1a1a1a" image-rendering="auto" shape-rendering="auto" solid-color="#000000" stroke-width=".27478" style="font-feature-settings:normal;font-variant-alternates:normal;font-variant-caps:normal;font-variant-ligatures:normal;font-variant-numeric:normal;font-variant-position:normal;isolation:auto;mix-blend-mode:normal;shape-padding:0;text-decoration-color:#000000;text-decoration-line:none;text-decoration-style:solid;text-indent:0;text-orientation:mixed;text-transform:none;white-space:normal"/>
</svg>
