<?xml version="1.0" encoding="UTF-8"?>
<svg width="54.98" height="45" version="1.1" viewBox="0 0 14.546717 11.90625" xmlns="http://www.w3.org/2000/svg" xmlns:cc="http://creativecommons.org/ns#" xmlns:dc="http://purl.org/dc/elements/1.1/" xmlns:rdf="http://www.w3.org/1999/02/22-rdf-syntax-ns#">
 <title>Sound Design</title>
 <metadata>
  <rdf:RDF>
   <cc:Work rdf:about="">
    <dc:format>image/svg+xml</dc:format>
    <dc:type rdf:resource="http://purl.org/dc/dcmitype/StillImage"/>
    <dc:title>Sound Design</dc:title>
    <dc:creator>
     <cc:Agent>
      <dc:title>David Matthew</dc:title>
     </cc:Agent>
    </dc:creator>
   </cc:Work>
  </rdf:RDF>
 </metadata>
 <g transform="translate(33.173 -92.393)">
  <g transform="matrix(.27478 0 0 .27478 -330.6 -93.536)" fill="#333">
   <path d="m1107.6 676.67-0.098 5e-3 -0.3869 0.029 0.2929 3.8529 0.3349-0.0257 1.1688-0.0296 1.1682 0.0296 0.8944 0.0683 0.2924-3.8529-0.946-0.0715-0.098-5e-3 -1.2628-0.0322h-0.097zm-5.2554 0.78951-0.093 0.0239-1.1643 0.33036-0.091 0.029-1.1399 0.38575-0.09 0.0329-0.7155 0.28141 1.4173 3.5947 0.6698-0.26403 1.0523-0.35613 1.0709-0.30395 0.6163-0.14232-0.8688-3.7647zm12.147 3.7376 0.069 0.0154 1.0722 0.3046 1.0523 0.35613 1.0304 0.40634 0.071 0.0322 1.5919-3.5206-0.1198-0.0541-0.087-0.0367-1.1148-0.4392-0.09-0.0329-1.1398-0.38574-0.091-0.029-1.1643-0.33036-0.093-0.0239-0.1172-0.0271zm-19.267-0.75023-0.079 0.0483-0.9956 0.63818-0.077 0.0521-0.9621 0.6839-0.074 0.0554-0.9267 0.72833-0.072 0.0592-0.1436 0.12429 2.5302 2.9204 0.1133-0.0979 0.8488-0.6678 0.8906-0.63238 0.9157-0.58731 0.072-0.0412-1.9261-3.3493zm25.729 3.5322 0.5918 0.3793 0.8906 0.63302 0.8552 0.67296 0.5307 0.4598 2.5301-2.9204-0.5673-0.49136-0.072-0.0592-0.9267-0.72834-0.074-0.0554-0.962-0.68389-0.076-0.0521-0.635-0.407zm-32.436 2.2546-0.059 0.0715-0.7284 0.92668-0.055 0.074-0.684 0.9621-0.052 0.0773-0.4573 0.71288 3.2528 2.0858 0.4301-0.67103 0.6324-0.89062 0.6678-0.84875 0.4038-0.46689-2.9204-2.5295zm37.805 2.4568 0.034 0.0406 0.6697 0.85198 0.6266 0.88096 0.5925 0.9241 0.088 0.15391 3.35-1.9261-0.1127-0.19576-0.048-0.0792-0.6382-0.99558-0.052-0.0773-0.6839-0.96209-0.055-0.074-0.7284-0.92668-0.058-0.0715-0.064-0.0728zm-41.78 4.0693-0.036 0.0876-0.4398 1.1141-0.032 0.0896-0.3857 1.1398-0.029 0.0915-0.3303 1.165-0.024 0.0927-0.048 0.20865 3.7646 0.86872 0.036-0.15649 0.3053-1.0754 0.3561-1.0516 0.4219-1.069-1.0723-0.42309-2.4703-1.1167zm45.373 1.9905 0.2298 0.5828 0.3561 1.0522 0.3046 1.0748 0.163 0.70386 3.7646-0.86936-0.1744-0.75474-0.024-0.0927-0.3303-1.165-0.028-0.0915-0.3857-1.1398-0.033-0.0896-0.248-0.62852zm-47.435 6.9472-0.01 0.0979-0.032 1.2628v0.0972l0.032 1.2628 0.01 0.0979 0.036 0.48041 3.8529-0.29302-0.033-0.42824-0.03-1.1682 0.03-1.1695 0.061-0.80047-3.8529-0.29301zm48.988-9.1e-4 0.019 0.24214 0.03 1.1688-0.03 1.1682-0.047 0.615 3.8529 0.29236c0.066-0.67869 0.067-1.4251 0.084-2.0272v-0.0973l-0.033-1.2628v-0.0979l-0.023-0.2943z" color="#000000" color-rendering="auto" dominant-baseline="auto" image-rendering="auto" shape-rendering="auto" solid-color="#000000" style="font-feature-settings:normal;font-variant-alternates:normal;font-variant-caps:normal;font-variant-ligatures:normal;font-variant-numeric:normal;font-variant-position:normal;isolation:auto;mix-blend-mode:normal;shape-padding:0;text-decoration-color:#000000;text-decoration-line:none;text-decoration-style:solid;text-indent:0;text-orientation:mixed;text-transform:none;white-space:normal"/>
   <path id="knob" transform="matrix(.9375 0 0 .9375 0 39.862)" d="m1182.8 689.15a18.152 18.152 0 0 0 -18.152 18.15 18.152 18.152 0 0 0 18.152 18.152 18.152 18.152 0 0 0 18.152 -18.152 18.152 18.152 0 0 0 -3.7559 -11.035l-4.6211 4.6211c-0.882 0.88203-2.3015 0.88202-3.1836 0-0.882-0.88203-0.882-2.3035 0-3.1856l4.6368-4.6367a18.152 18.152 0 0 0 -11.229 -3.9141z"/>
  </g>
 </g>
</svg>
