<?xml version="1.0" encoding="UTF-8"?>
<svg version="1.1" viewBox="0 0 100 7.3882496" xmlns="http://www.w3.org/2000/svg" xmlns:cc="http://creativecommons.org/ns#" xmlns:dc="http://purl.org/dc/elements/1.1/" xmlns:rdf="http://www.w3.org/1999/02/22-rdf-syntax-ns#">
	<metadata>
		<rdf:RDF>
			<cc:Work rdf:about="">
				<dc:format>image/svg+xml</dc:format>
				<dc:type rdf:resource="http://purl.org/dc/dcmitype/StillImage"/>
				<dc:title/>
			</cc:Work>
		</rdf:RDF>
	</metadata>
	<g transform="translate(235.52 -186.67)">
		<g stroke="#fff">
			<path d="m-235.47 186.72h2.0617l-2.0617 2.0617z" fill="#fff" fill-opacity=".99608" stroke-width=".09277"/>
			<path d="m-135.57 194.01h-2.0617l2.0617-2.0617z" fill="#fff" fill-opacity=".99608" stroke-width=".09277"/>
			<rect x="-235.39" y="186.8" width="99.743" height="7.1317" rx="0" ry="0" fill="none" stroke-width=".23882"/>
		</g>
		<g fill="#fff">
			<path d="m-231.47 189.3h0.23982q0.0387 0 0.0641 0.0194 0.0253 0.0194 0.0343 0.0492l0.44091 1.4836q0.0119 0.0402 0.0208 0.0864 0.0104 0.0462 0.0194 0.0968 0.0104-0.0506 0.0209-0.0968 0.0104-0.0477 0.0238-0.0864l0.50198-1.4836q9e-3 -0.0253 0.0343-0.0462 0.0268-0.0223 0.0641-0.0223h0.0834q0.0387 0 0.0626 0.0194 0.0253 0.0194 0.0357 0.0492l0.499 1.4836q0.0268 0.0775 0.0477 0.17725 9e-3 -0.0491 0.0164-0.0938 7e-3 -0.0447 0.0194-0.0834l0.4424-1.4836q7e-3 -0.0268 0.0328-0.0477 0.0268-0.0208 0.0641-0.0208h0.22492l-0.66583 2.1345h-0.25918l-0.5407-1.6281q-0.0164-0.0462-0.0298-0.10725-7e-3 0.0298-0.0149 0.0581-6e-3 0.0268-0.0134 0.0492l-0.54369 1.6281h-0.25918z"/>
			<path d="m-225.61 189.3v0.23535h-1.0248v0.70902h0.82967v0.22641h-0.82967v0.72839h1.0248v0.23535h-1.3153v-2.1345z"/>
			<path d="m-223.94 191.43v-2.1345h0.68072q0.19662 0 0.33813 0.0387 0.14299 0.0387 0.23386 0.11023 0.0923 0.0715 0.13554 0.17576 0.0447 0.10278 0.0447 0.23237 0 0.0789-0.0253 0.15194-0.0238 0.073-0.0745 0.13554-0.0491 0.0626-0.12512 0.11172-0.0745 0.0492-0.17577 0.0804 0.23386 0.0462 0.35303 0.16831 0.11916 0.12215 0.11916 0.32175 0 0.13555-0.0506 0.24726-0.0491 0.11172-0.14597 0.19215-0.0953 0.0804-0.23535 0.12512-0.13853 0.0432-0.31727 0.0432zm0.28897-0.97267v0.74328h0.46176q0.12363 0 0.21151-0.0283 0.0894-0.0283 0.14598-0.0789 0.0581-0.0521 0.0849-0.12214 0.0268-0.0715 0.0268-0.1564 0-0.16534-0.11768-0.26067-0.11618-0.0968-0.35302-0.0968zm0-0.20556h0.38132q0.12215 0 0.21152-0.0268 0.0894-0.0268 0.14746-0.0745 0.0596-0.0477 0.0879-0.11469 0.0283-0.0685 0.0283-0.14896 0-0.18768-0.11321-0.27557-0.1132-0.0879-0.35153-0.0879h-0.39175z"/>
			<path d="m-219.65 189.63q-0.0134 0.0223-0.0283 0.0343-0.0149 0.0104-0.0387 0.0104-0.0253 0-0.0596-0.0253-0.0328-0.0253-0.0849-0.0551-0.0506-0.0313-0.12363-0.0566-0.0715-0.0253-0.17428-0.0253-0.0968 0-0.1713 0.0268-0.0745 0.0253-0.12512 0.07-0.0491 0.0447-0.0745 0.10575-0.0253 0.0596-0.0253 0.12959 0 0.0894 0.0432 0.14896 0.0447 0.0581 0.11618 0.0998 0.073 0.0417 0.16385 0.073 0.0924 0.0298 0.18769 0.0626 0.0968 0.0328 0.18768 0.0745 0.0924 0.0402 0.16385 0.10278 0.073 0.0626 0.11618 0.15343 0.0447 0.0909 0.0447 0.22343 0 0.14002-0.0477 0.26365-0.0477 0.12214-0.14002 0.213-0.0909 0.0909-0.22492 0.143-0.13257 0.0521-0.30238 0.0521-0.20705 0-0.37835-0.0745-0.1698-0.076-0.29046-0.20407l0.0834-0.13704q0.0119-0.0164 0.0283-0.0268 0.0179-0.0119 0.0387-0.0119 0.0313 0 0.0715 0.0343 0.0402 0.0328 0.0998 0.073 0.0611 0.0402 0.14598 0.0745 0.0864 0.0328 0.21003 0.0328 0.10277 0 0.18321-0.0283 0.0804-0.0283 0.13555-0.0789 0.0566-0.0521 0.0864-0.12363 0.0298-0.0715 0.0298-0.15938 0-0.0968-0.0447-0.1579-0.0432-0.0626-0.1147-0.10426-0.0715-0.0417-0.16385-0.07-0.0909-0.0298-0.18768-0.0596-0.0953-0.0313-0.18768-0.0715-0.0909-0.0402-0.16236-0.10427-0.0715-0.0641-0.11619-0.15938-0.0432-0.0968-0.0432-0.23833 0-0.11321 0.0432-0.21896 0.0447-0.10576 0.1281-0.18769 0.0834-0.0819 0.20556-0.13108 0.12363-0.0492 0.28301-0.0492 0.17875 0 0.32621 0.0566 0.14747 0.0566 0.2577 0.16385z"/>
			<path d="m-217.56 191.43h-0.28898v-2.1345h0.28898z"/>
			<path d="m-214.27 189.3v0.2428h-0.68966v1.8917h-0.28897v-1.8917h-0.69264v-0.2428z"/>
			<path d="m-211.38 189.3v0.23535h-1.0248v0.70902h0.82968v0.22641h-0.82968v0.72839h1.0248v0.23535h-1.3153v-2.1345z"/>
			<path d="m-206.01 190.37q0 0.23981-0.076 0.43643t-0.2145 0.33664q-0.13853 0.14002-0.33217 0.21747-0.19364 0.076-0.42899 0.076h-0.7984v-2.1345h0.7984q0.23535 0 0.42899 0.0775 0.19364 0.076 0.33217 0.21747 0.13853 0.14002 0.2145 0.33664 0.076 0.19662 0.076 0.43644zm-0.29642 0q0-0.19662-0.0536-0.35154-0.0536-0.15491-0.15194-0.26216-0.0983-0.10724-0.23832-0.16385-0.14002-0.0566-0.31132-0.0566h-0.50793v1.6668h0.50793q0.1713 0 0.31132-0.0566 0.14001-0.0566 0.23832-0.16236 0.0983-0.10725 0.15194-0.26216 0.0536-0.15491 0.0536-0.35153z"/>
			<path d="m-203.03 189.3v0.23535h-1.0248v0.70902h0.82968v0.22641h-0.82968v0.72839h1.0248v0.23535h-1.3153v-2.1345z"/>
			<path d="m-200.26 189.63q-0.0134 0.0223-0.0283 0.0343-0.0149 0.0104-0.0387 0.0104-0.0253 0-0.0596-0.0253-0.0328-0.0253-0.0849-0.0551-0.0506-0.0313-0.12363-0.0566-0.0715-0.0253-0.17428-0.0253-0.0968 0-0.17129 0.0268-0.0745 0.0253-0.12513 0.07-0.0491 0.0447-0.0745 0.10575-0.0253 0.0596-0.0253 0.12959 0 0.0894 0.0432 0.14896 0.0447 0.0581 0.11619 0.0998 0.073 0.0417 0.16385 0.073 0.0923 0.0298 0.18768 0.0626 0.0968 0.0328 0.18768 0.0745 0.0923 0.0402 0.16385 0.10278 0.073 0.0626 0.11619 0.15343 0.0447 0.0909 0.0447 0.22343 0 0.14002-0.0477 0.26365-0.0477 0.12214-0.14002 0.213-0.0909 0.0909-0.22492 0.143-0.13257 0.0521-0.30238 0.0521-0.20705 0-0.37834-0.0745-0.16981-0.076-0.29047-0.20407l0.0834-0.13704q0.0119-0.0164 0.0283-0.0268 0.0179-0.0119 0.0387-0.0119 0.0313 0 0.0715 0.0343 0.0402 0.0328 0.0998 0.073 0.0611 0.0402 0.14597 0.0745 0.0864 0.0328 0.21003 0.0328 0.10278 0 0.18321-0.0283 0.0804-0.0283 0.13555-0.0789 0.0566-0.0521 0.0864-0.12363 0.0298-0.0715 0.0298-0.15938 0-0.0968-0.0447-0.1579-0.0432-0.0626-0.1147-0.10426-0.0715-0.0417-0.16385-0.07-0.0909-0.0298-0.18768-0.0596-0.0953-0.0313-0.18768-0.0715-0.0909-0.0402-0.16236-0.10427-0.0715-0.0641-0.11619-0.15938-0.0432-0.0968-0.0432-0.23833 0-0.11321 0.0432-0.21896 0.0447-0.10576 0.1281-0.18769 0.0834-0.0819 0.20556-0.13108 0.12363-0.0492 0.28301-0.0492 0.17875 0 0.32622 0.0566 0.14746 0.0566 0.25769 0.16385z"/>
			<path d="m-198.17 191.43h-0.28898v-2.1345h0.28898z"/>
			<path d="m-195.38 191.22q0.0864 0 0.15789-7e-3 0.073-9e-3 0.13704-0.0253 0.0641-0.0164 0.12065-0.0387 0.0566-0.0238 0.11321-0.0536v-0.47069h-0.33068q-0.0283 0-0.0462-0.0164-0.0164-0.0164-0.0164-0.0402v-0.16385h0.6554v0.81925q-0.0804 0.0581-0.16832 0.10129-0.0864 0.0432-0.1862 0.073-0.0983 0.0283-0.21151 0.0417-0.11321 0.0149-0.24578 0.0149-0.23237 0-0.42601-0.0789-0.19364-0.0804-0.33366-0.22343-0.14001-0.14449-0.21896-0.34558-0.0775-0.20109-0.0775-0.44239 0-0.24429 0.076-0.44538 0.0775-0.20109 0.21897-0.34408 0.14299-0.14449 0.34408-0.22344 0.20258-0.0789 0.45282-0.0789 0.12661 0 0.23535 0.0194 0.10874 0.0179 0.20109 0.0536 0.0938 0.0343 0.17279 0.0849 0.0789 0.0491 0.14746 0.11172l-0.0819 0.13108q-0.0253 0.0402-0.0655 0.0402-0.0238 0-0.0521-0.0164-0.0372-0.0208-0.0834-0.0506t-0.11321-0.0566q-0.0655-0.0283-0.1564-0.0477-0.0894-0.0194-0.213-0.0194-0.18024 0-0.32622 0.0596-0.14597 0.0581-0.24875 0.16832-0.10278 0.10874-0.15789 0.26514-0.0551 0.15491-0.0551 0.34856 0 0.20257 0.0566 0.36196 0.0581 0.15789 0.16236 0.26811 0.10427 0.11023 0.24726 0.16832 0.143 0.0581 0.31579 0.0581z"/>
			<path d="m-192.73 189.3q0.0387 0 0.0566 0.0104 0.0194 9e-3 0.0432 0.0387l1.2363 1.6087q-4e-3 -0.0387-6e-3 -0.0745-1e-3 -0.0372-1e-3 -0.0715v-1.5119h0.25322v2.1345h-0.14598q-0.0343 0-0.0581-0.0119-0.0223-0.0119-0.0447-0.0402l-1.2348-1.6072q3e-3 0.0372 4e-3 0.073 1e-3 0.0357 1e-3 0.0655v1.5208h-0.25323v-2.1345h0.14896z"/>
			<path d="m-187.52 191.43v-2.1345h0.68072q0.19662 0 0.33813 0.0387 0.14299 0.0387 0.23386 0.11023 0.0924 0.0715 0.13555 0.17576 0.0447 0.10278 0.0447 0.23237 0 0.0789-0.0253 0.15194-0.0238 0.073-0.0745 0.13554-0.0491 0.0626-0.12512 0.11172-0.0745 0.0492-0.17577 0.0804 0.23386 0.0462 0.35303 0.16831 0.11916 0.12215 0.11916 0.32175 0 0.13555-0.0506 0.24726-0.0492 0.11172-0.14598 0.19215-0.0953 0.0804-0.23535 0.12512-0.13853 0.0432-0.31727 0.0432zm0.28897-0.97267v0.74328h0.46176q0.12363 0 0.21151-0.0283 0.0894-0.0283 0.14598-0.0789 0.0581-0.0521 0.0849-0.12214 0.0268-0.0715 0.0268-0.1564 0-0.16534-0.11768-0.26067-0.11618-0.0968-0.35302-0.0968zm0-0.20556h0.38132q0.12215 0 0.21152-0.0268 0.0894-0.0268 0.14746-0.0745 0.0596-0.0477 0.0879-0.11469 0.0283-0.0685 0.0283-0.14896 0-0.18768-0.11321-0.27557-0.1132-0.0879-0.35153-0.0879h-0.39175z"/>
			<path d="m-183.5 190.58v0.84904h-0.28748v-0.84904l-0.78202-1.2855h0.25323q0.0387 0 0.0611 0.0194 0.0223 0.0194 0.0387 0.0477l0.48857 0.82968q0.0298 0.0521 0.0492 0.0983 0.0209 0.0462 0.0372 0.0909 0.0164-0.0462 0.0357-0.0923 0.0194-0.0462 0.0492-0.0968l0.48708-0.82968q0.0134-0.0238 0.0357-0.0447 0.0238-0.0223 0.0611-0.0223h0.2562z"/>
			<path d="m-177.49 190.37q0 0.23981-0.076 0.43643t-0.2145 0.33664q-0.13853 0.14002-0.33217 0.21747-0.19364 0.076-0.42899 0.076h-0.79839v-2.1345h0.79839q0.23535 0 0.42899 0.0775 0.19364 0.076 0.33217 0.21747 0.13853 0.14002 0.2145 0.33664 0.076 0.19662 0.076 0.43644zm-0.29642 0q0-0.19662-0.0536-0.35154-0.0536-0.15491-0.15193-0.26216-0.0983-0.10724-0.23833-0.16385-0.14002-0.0566-0.31132-0.0566h-0.50793v1.6668h0.50793q0.1713 0 0.31132-0.0566t0.23833-0.16236q0.0983-0.10725 0.15193-0.26216 0.0536-0.15491 0.0536-0.35153z"/>
			<path d="m-174.14 191.43h-0.22343q-0.0387 0-0.0626-0.0194-0.0238-0.0194-0.0358-0.0492l-0.1996-0.51538h-0.95778l-0.1996 0.51538q-0.0104 0.0268-0.0358 0.0477-0.0253 0.0208-0.0626 0.0208h-0.22343l0.85351-2.1345h0.29344zm-1.3987-0.79244h0.79691l-0.33515-0.8684q-0.0328-0.0804-0.064-0.20109-0.0164 0.0611-0.0328 0.1132-0.0149 0.0506-0.0298 0.0894z"/>
			<path d="m-173.06 189.3h0.23088q0.0387 0 0.0626 0.0194 0.0238 0.0194 0.0358 0.0492l0.60327 1.5059q0.0208 0.0506 0.0372 0.11023 0.0179 0.0596 0.0343 0.12363 0.0134-0.0641 0.0283-0.12363 0.0164-0.0596 0.0372-0.11023l0.60028-1.5059q0.0104-0.0253 0.0358-0.0462 0.0253-0.0223 0.0626-0.0223h0.23237l-0.86989 2.1345h-0.26067z"/>
			<path d="m-169.18 191.43h-0.28897v-2.1345h0.28897z"/>
			<path d="m-165.49 190.37q0 0.23981-0.076 0.43643t-0.2145 0.33664q-0.13852 0.14002-0.33217 0.21747-0.19364 0.076-0.42898 0.076h-0.7984v-2.1345h0.7984q0.23534 0 0.42898 0.0775 0.19365 0.076 0.33217 0.21747 0.13853 0.14002 0.2145 0.33664 0.076 0.19662 0.076 0.43644zm-0.29642 0q0-0.19662-0.0536-0.35154-0.0536-0.15491-0.15193-0.26216-0.0983-0.10724-0.23833-0.16385-0.14002-0.0566-0.31131-0.0566h-0.50794v1.6668h0.50794q0.17129 0 0.31131-0.0566t0.23833-0.16236q0.0983-0.10725 0.15193-0.26216 0.0536-0.15491 0.0536-0.35153z"/>
			<path d="m-160.93 190.66q0.0208 0.0358 0.0358 0.076 0.0164 0.0387 0.0313 0.0789 0.0149-0.0417 0.0313-0.0789 0.0164-0.0387 0.0372-0.0774l0.72243-1.3123q0.0194-0.0343 0.0402-0.0417 0.0209-7e-3 0.0596-7e-3h0.213v2.1345h-0.25322v-1.5685q0-0.0313 1e-3 -0.067t4e-3 -0.073l-0.73137 1.3346q-0.0372 0.067-0.10427 0.067h-0.0417q-0.067 0-0.10426-0.067l-0.74776-1.3391q4e-3 0.0387 6e-3 0.076 3e-3 0.0372 3e-3 0.0685v1.5685h-0.25322v-2.1345h0.213q0.0387 0 0.0596 7e-3t0.0402 0.0417l0.73733 1.3138z"/>
			<path d="m-156.22 191.43h-0.22343q-0.0387 0-0.0626-0.0194-0.0238-0.0194-0.0358-0.0492l-0.1996-0.51538h-0.95778l-0.1996 0.51538q-0.0104 0.0268-0.0358 0.0477-0.0253 0.0208-0.0626 0.0208h-0.22343l0.85351-2.1345h0.29344zm-1.3987-0.79244h0.79691l-0.33515-0.8684q-0.0328-0.0804-0.064-0.20109-0.0164 0.0611-0.0328 0.1132-0.0149 0.0506-0.0298 0.0894z"/>
			<path d="m-153.43 189.3v0.2428h-0.68966v1.8917h-0.28897v-1.8917h-0.69264v-0.2428z"/>
			<path d="m-150.41 189.3v0.2428h-0.68967v1.8917h-0.28897v-1.8917h-0.69264v-0.2428z"/>
			<path d="m-147.11 191.43h-0.29047v-0.97118h-1.1499v0.97118h-0.29046v-2.1345h0.29046v0.95182h1.1499v-0.95182h0.29047z"/>
			<path d="m-144 189.3v0.23535h-1.0248v0.70902h0.82967v0.22641h-0.82967v0.72839h1.0248v0.23535h-1.3153v-2.1345z"/>
			<path d="m-142.56 189.3h0.23982q0.0387 0 0.0641 0.0194 0.0253 0.0194 0.0343 0.0492l0.44091 1.4836q0.0119 0.0402 0.0208 0.0864 0.0104 0.0462 0.0194 0.0968 0.0104-0.0506 0.0209-0.0968 0.0104-0.0477 0.0238-0.0864l0.50198-1.4836q9e-3 -0.0253 0.0343-0.0462 0.0268-0.0223 0.0641-0.0223h0.0834q0.0387 0 0.0626 0.0194 0.0253 0.0194 0.0358 0.0492l0.499 1.4836q0.0268 0.0775 0.0477 0.17725 9e-3 -0.0491 0.0164-0.0938 7e-3 -0.0447 0.0194-0.0834l0.44239-1.4836q7e-3 -0.0268 0.0328-0.0477 0.0268-0.0208 0.0641-0.0208h0.22492l-0.66582 2.1345h-0.25919l-0.5407-1.6281q-0.0164-0.0462-0.0298-0.10725-7e-3 0.0298-0.0149 0.0581-6e-3 0.0268-0.0134 0.0492l-0.54369 1.6281h-0.25918z"/>
		</g>
	</g>
</svg>
