<?xml version="1.0" encoding="UTF-8"?>
<svg version="1.1" viewBox="0 0 132.29167 84.465593" xmlns="http://www.w3.org/2000/svg" xmlns:cc="http://creativecommons.org/ns#" xmlns:dc="http://purl.org/dc/elements/1.1/" xmlns:rdf="http://www.w3.org/1999/02/22-rdf-syntax-ns#" xmlns:xlink="http://www.w3.org/1999/xlink">
	<title>Herons Wood Medical Centre Logo</title>
	<defs>
		<linearGradient id="linearGradient4673" x1="254.07" x2="254.07" y1="163.91" y2="215.59" gradientTransform="matrix(1.0084 0 0 1.0084 -164.89 -226.85)" gradientUnits="userSpaceOnUse" xlink:href="#linearGradient4671"/>
		<linearGradient id="linearGradient4671">
			<stop stop-color="#fff" offset="0"/>
			<stop stop-color="#fff" stop-opacity="0" offset="1"/>
		</linearGradient>
		<linearGradient id="linearGradient4681" x1="255.83" x2="255.83" y1="161.6" y2="218.4" gradientTransform="matrix(1.0084 0 0 1.0084 -333.44 -121.08)" gradientUnits="userSpaceOnUse" xlink:href="#linearGradient4671"/>
	</defs>
	<metadata>
		<rdf:RDF>
			<cc:Work rdf:about="">
				<dc:format>image/svg+xml</dc:format>
				<dc:type rdf:resource="http://purl.org/dc/dcmitype/StillImage"/>
				<dc:title>Herons Wood Medical Centre Logo</dc:title>
				<dc:creator>
					<cc:Agent>
						<dc:title>David Matthew</dc:title>
					</cc:Agent>
				</dc:creator>
			</cc:Work>
		</rdf:RDF>
	</metadata>
	<g transform="translate(143.46 -1.1718)">
		<g>
			<g transform="scale(1.1122 .89909)" fill="#fff" aria-label="Herons Wood">
				<path d="m-121.28 3.6665h2.1995l0.0234 0.070196q-0.23399 0.16379-0.56157 0.70196-0.32758 0.51477-0.63176 1.5677-0.30418 1.0295-0.79555 4.8669l7.0664 0.0234q0.49137-3.0886 0.70195-4.1884 0.23399-1.0997 0.63177-1.7315-0.49137-0.023399-1.4039-0.023399-0.88915 0-2.0123 0.16379l-0.0234-0.046797q0.72536-0.86575 1.6379-1.1465 0.91255-0.28078 2.8546-0.28078h1.2635l0.0234 0.070196q-0.88915 0.56157-1.1465 2.0591-0.117 0.72536-0.79556 4.7733-0.65516 4.0246-1.0295 6.3176-0.23398 1.3571-1.7783 2.8312l0.0936 0.18719h1.4273q1.6847 0 2.9716-0.86575l0.0936 0.18719q-0.77215 0.63176-1.0529 0.88915-0.28078 0.23399-0.53817 0.44457-0.25738 0.21059-0.39777 0.30418-0.1404 0.09359-0.30419 0.18719-0.30418 0.21059-0.44457 0.21059-2.8546 0-4.3989-0.0234l-0.0936-0.18719q2.0357-0.42118 2.6908-3.9544 0.28078-1.4975 0.86574-5.0073l-7.0898-0.0468q-0.39778 2.6206-0.65516 4.0714-0.49138 2.6908-1.8251 4.0246-1.3103 1.3103-3.2056 1.3103-0.0702 0-0.14039 0l-1.2635-0.0234 1.0997-1.4975q0.84235 0.21059 1.5911 0.21059 0.77216 0 1.1231-0.37438t0.58496-1.5443q0.53817-2.8546 1.0529-6.2006 0.51477-3.346 0.79556-4.8903 0.30418-1.5443 0.65516-2.1293l-1.7549-0.023399q-0.0468 0-0.0702 0-2.2229 0-3.1822 1.3103-0.93594 1.2869-0.93594 4.3755l-1.6145 1.2635q0-2.6674 0.95934-4.5627 0.95935-1.8953 3.2758-3.229 0.77216-0.44457 3.463-0.44457z"/>
				<path d="m-105.14 10.125q-1.1699 0-1.9421 1.4507-0.77215 1.4507-1.1231 3.697 1.4507-0.93595 2.5738-2.2697 1.1231-1.3337 1.1231-2.1059t-0.63176-0.77216zm-3.8842 3.1822q0.91254-1.8485 2.1995-2.9716 1.3103-1.1465 2.4802-1.1465 1.1933 0 1.1933 0.93595 0 2.2697-5.1711 5.7093-0.0234 0.25738-0.0234 0.65516 0 2.644 1.5911 3.814 2.3165-1.7783 5.1945-5.7795l0.23399 0.16379q-1.6847 2.4569-3.3928 4.3755-1.7081 1.8953-2.8546 2.3867-1.1699-0.28078-1.7549-1.5443-0.58496-1.2869-0.58496-3.0184t0.88915-3.58z"/>
				<path d="m-95.367 9.1652q0.49137 0 0.81895 0.23399l-0.74876 1.2869q-0.32758-0.21059-0.84235-0.21059-1.1231 0-2.4569 2.5738-1.3337 2.5505-2.5271 7.3004l-1.2869 1.0997q-0.0468-0.56157-0.0468-1.3337t0.18719-2.1059q0.18719-1.3571 0.60837-3.6268 0.42117-2.2931 0.65516-3.7672l-1.6379 1.1933 0.0468-0.25738q0.16379-0.23399 0.44457-0.58496 0.30419-0.37438 1.1231-1.0295 0.81895-0.65516 1.5443-0.77216-0.16379 1.0061-0.46797 3.229-0.28079 2.1995-0.44458 3.2524h0.16379q1.1933-3.1822 2.3399-4.8201 1.1699-1.6613 2.5271-1.6613z"/>
				<path d="m-88.537 13.611q0 2.4101-1.6847 4.7967t-3.8842 3.0184q-0.88915-0.39778-1.4039-1.7315-0.51477-1.3337-0.51477-2.644 0-2.5271 1.6613-4.8435 1.6847-2.3399 3.9076-2.9716 0.84235 0.39778 1.3805 1.7783 0.53817 1.3805 0.53817 2.5972zm-5.9433 2.2931q0 0.91255 0.0468 1.4741 0.11699 1.5911 0.95934 3.112 3.3928-1.4507 3.3928-5.7327 0-0.91255-0.0468-1.4975-0.11699-1.5677-0.95934-3.0886-1.8017 0.81895-2.5972 2.2463-0.79555 1.4039-0.79555 3.4864z"/>
				<path d="m-79.103 9.1886q0.39778 0.32758 0.39778 1.8485 0 1.5209-0.81895 5.1243-0.81895 3.58-0.86575 3.7906l0.0702 0.0468q2.0825-1.4975 4.9137-5.4753l0.23399 0.16379q-1.6145 2.3867-3.346 4.3287-1.7081 1.9421-2.9014 2.4335-0.0468-0.56157-0.0468-0.88915 0-1.4975 0.51477-4.5159 0.53817-3.0184 0.53817-4.6095l-0.09359-0.0468q-1.4039 1.2635-3.0418 4.0246-1.6379 2.7376-2.6908 6.0368-0.53817-0.60836-0.53817-1.4975 0-0.74876 0.98274-7.1132l0.32758-2.1059-0.0702-0.0468-1.5443 1.1231 0.0468-0.25738q0.16379-0.23399 0.44457-0.58496 0.30418-0.37438 1.1231-1.0295 0.81895-0.65516 1.5443-0.77216-0.16379 0.98274-0.49137 3.6502-0.32758 2.644-0.56157 3.9076l0.0702 0.0468q1.3805-2.6908 2.9248-4.8201 1.5677-2.1527 2.878-2.761z"/>
				<path d="m-74.281 10.008q1.0295-0.81895 2.2697-0.81895t1.9187 0.63176l-1.0997 1.2869q-0.28078-0.98274-1.6379-0.98274-0.74876 0-1.2167 0.44457-0.46797 0.42118-0.46797 1.0061 0 0.56157 0.14039 0.86575 0.14039 0.28078 0.21059 0.42118 0.0702 0.14039 0.23399 0.39778 0.18719 0.23399 0.25738 0.32758 0.09359 0.0702 0.32758 0.35098 0.23399 0.25738 0.70196 0.81895 1.3103 1.4741 1.3103 2.7844 0 1.3103-1.5677 2.5972-1.5443 1.2635-2.9014 1.2635-1.3337 0-1.8953-0.63176l1.1699-1.0763q0.81895 0.72536 1.9655 0.72536 0.70196 0 1.3805-0.58496 0.70196-0.60836 0.70196-1.2869 0-1.1933-1.8017-3.1588-0.53817-0.58497-0.81895-0.91255t-0.60836-0.91255q-0.30418-0.58497-0.30418-1.0295 0-1.1699 1.7315-2.5271z"/>
				<path d="m-57.326 3.5027q3.346 0 3.346 9.2659 0 2.3867-0.21059 4.8669 1.3103-2.3165 3.0652-6.6218 1.7549-4.3053 2.3633-5.7327l2.7376-1.6847 0.14039 0.16379q-1.7081 2.0123-1.7081 5.9433 0 2.1995 0.60836 8.3299 1.1933-1.5911 2.9716-5.6859 1.8017-4.1182 1.8017-6.0368 0-1.0997-0.74876-1.0997h-1.0997l-0.0234-0.093595 1.7783-1.0529h0.91255q1.3337 0 1.3337 0.65516v0.093595q-0.39778 2.0123-1.4507 4.6563-1.0295 2.6206-1.9187 4.3521-1.3103 2.6206-3.5566 6.809l-0.84235 0.81895q-0.70196-3.6034-0.98274-5.8731-0.25738-2.2697-0.25738-5.6391v-1.2869q-1.8719 4.5627-2.761 6.4346-0.88915 1.8719-2.8078 5.4753l-1.6145 0.86575 0.16379-1.3337q0.35098-2.761 0.35098-6.3176 0-8.9383-2.8312-8.9383-1.2869 0-2.5271 1.0997-0.65516 0.58497-1.0763 1.8017-0.39778 1.2167-0.39778 2.878-0.72536 0.49137-1.6145 1.2635 0-3.3694 2.0357-5.8731 2.0357-2.5037 4.8201-2.5037z"/>
				<path d="m-33.331 13.611q0 2.4101-1.6847 4.7967-1.6847 2.3867-3.8842 3.0184-0.88915-0.39778-1.4039-1.7315-0.51477-1.3337-0.51477-2.644 0-2.5271 1.6613-4.8435 1.6847-2.3399 3.9076-2.9716 0.84235 0.39778 1.3805 1.7783 0.53817 1.3805 0.53817 2.5972zm-5.9433 2.2931q0 0.91255 0.0468 1.4741 0.11699 1.5911 0.95934 3.112 3.3928-1.4507 3.3928-5.7327 0-0.91255-0.0468-1.4975-0.11699-1.5677-0.95934-3.0886-1.8017 0.81895-2.5972 2.2463-0.79555 1.4039-0.79555 3.4864z"/>
				<path d="m-24.739 13.611q0 2.4101-1.6847 4.7967t-3.8842 3.0184q-0.88915-0.39778-1.4039-1.7315-0.51477-1.3337-0.51477-2.644 0-2.5271 1.6613-4.8435 1.6847-2.3399 3.9076-2.9716 0.84235 0.39778 1.3805 1.7783 0.53817 1.3805 0.53817 2.5972zm-5.9433 2.2931q0 0.91255 0.0468 1.4741 0.11699 1.5911 0.95934 3.112 3.3928-1.4507 3.3928-5.7327 0-0.91255-0.0468-1.4975-0.11699-1.5677-0.95934-3.0886-1.8017 0.81895-2.5972 2.2463-0.79555 1.4039-0.79555 3.4864z"/>
				<path d="m-11.187 1.3033q0.67856 0 1.1465 0.11699l-0.95934 1.2635q-0.65516-0.14039-1.3805-0.14039t-1.2167 0.35098q-0.49137 0.35098-0.77216 0.81895t-0.51477 1.2635q-0.21059 0.79555-0.30418 1.3337-0.0702 0.51477-0.18719 1.4039-0.0936 0.86575-0.21059 1.4741-0.09359 0.60836-0.42118 3.2524-0.30418 2.6206-0.63176 4.4691-0.32758 1.8485-0.81895 3.0418l0.0702 0.0468q1.9655-1.4273 4.9137-5.4753l0.23399 0.16379q-1.6847 2.4569-3.3928 4.3755-1.7081 1.8953-2.8546 2.3867-0.0468-0.56157-0.0468-1.2635 0-0.72536 0.32758-2.5972 0.35098-1.8719 0.39778-2.3867 0.0702-0.51477 0.18719-0.72536l-0.0702-0.0468q-0.0936 0.14039-0.98274 1.5911-0.88915 1.4507-1.3805 2.1761-0.49137 0.72536-1.4273 1.7549-0.91255 1.0061-1.7315 1.4507-0.46797-1.0061-0.46797-2.6908 0-1.7081 0.56157-4.0012 0.79555-2.6206 2.0123-3.9076 1.2167-1.3103 3.229-1.3103 0.49137 0 0.79555 0.11699l0.44457-2.5738q0.37438-2.1527 1.9655-3.931 1.6145-1.8017 3.4864-1.8017zm-7.5578 9.3829q-1.5911 0-2.2229 0.84235-0.60836 0.81895-0.88915 3.2524-0.25738 2.4335-0.25738 3.3694 0 0.91255 0.23399 1.6145 3.1354-3.3226 4.6329-8.8447-0.51477-0.23399-1.4975-0.23399z"/>
			</g>
			<g fill="#fff" stroke-width=".19578px" aria-label="MEDICAL  CENTRE">
				<path d="m-135.34 31.818q0.0548 0.09398 0.094 0.1997 0.0431 0.10181 0.0822 0.20753 0.0392-0.10964 0.0822-0.20753 0.0431-0.10181 0.0979-0.20361l1.8991-3.4497q0.0509-0.09006 0.10572-0.10964 0.0548-0.01958 0.15663-0.01958h0.55993v5.6111h-0.66566v-4.1232q0-0.08223 4e-3 -0.1762 4e-3 -0.09398 0.0118-0.19187l-1.9226 3.5084q-0.0979 0.1762-0.27409 0.1762h-0.10964q-0.1762 0-0.27409-0.1762l-1.9656-3.5202q0.0118 0.10181 0.0157 0.1997 8e-3 0.09789 8e-3 0.18012v4.1232h-0.66565v-5.6111h0.55993q0.10181 0 0.15663 0.01958 0.0548 0.01958 0.10572 0.10964l1.9382 3.4536z"/>
				<path d="m-123.52 28.235v0.61867h-2.694v1.8638h2.181v0.59518h-2.181v1.9147h2.694v0.61867h-3.4575v-5.6111z"/>
				<path d="m-113.66 31.042q0 0.63042-0.1997 1.1473-0.19969 0.51686-0.56385 0.88493-0.36415 0.36807-0.87318 0.57168-0.50903 0.1997-1.1277 0.1997h-2.0988v-5.6111h2.0988q0.61867 0 1.1277 0.20361 0.50903 0.1997 0.87318 0.57168 0.36416 0.36807 0.56385 0.88493 0.1997 0.51686 0.1997 1.1473zm-0.77921 0q0-0.51686-0.14096-0.92409-0.14096-0.40722-0.3994-0.68915-0.25843-0.28192-0.6265-0.43072t-0.81836-0.14879h-1.3352v4.3816h1.3352q0.45029 0 0.81836-0.14879t0.6265-0.4268q0.25844-0.28193 0.3994-0.68915 0.14096-0.40723 0.14096-0.92409z"/>
				<path d="m-107.8 33.846h-0.75963v-5.6111h0.75963z"/>
				<path d="m-98.428 32.687q0.06265 0 0.11355 0.0509l0.29759 0.325q-0.34458 0.3994-0.83794 0.62258-0.48945 0.22319-1.1825 0.22319-0.60692 0-1.1003-0.20753-0.49337-0.21144-0.84186-0.58734-0.34849-0.37982-0.54036-0.90843-0.19186-0.52861-0.19186-1.1629t0.20361-1.1629q0.20753-0.52861 0.57951-0.90843 0.37199-0.37982 0.88885-0.58734 0.52078-0.21144 1.1473-0.21144 0.61867 0 1.0651 0.19187 0.4503 0.19187 0.79879 0.52078l-0.24668 0.34849q-0.02741 0.03916-0.06265 0.06657-0.03524 0.02349-0.10181 0.02349-0.0509 0-0.10964-0.03524-0.05482-0.03916-0.13313-0.09398-0.07831-0.05482-0.18403-0.11747-0.10572-0.06265-0.2506-0.11747-0.14488-0.05482-0.33674-0.09006-0.19187-0.03916-0.44247-0.03916-0.4503 0-0.8262 0.15662-0.37199 0.15271-0.64217 0.43855t-0.42288 0.69698q-0.1488 0.41114-0.1488 0.92017 0 0.52469 0.1488 0.93584 0.1527 0.41114 0.41114 0.69698 0.26234 0.28192 0.61867 0.43072 0.35632 0.14879 0.76746 0.14879 0.2506 0 0.4503-0.02741 0.1997-0.03132 0.36807-0.09398 0.17229-0.06265 0.31717-0.15663 0.14879-0.09789 0.29759-0.23102 0.06657-0.05873 0.12922-0.05873z"/>
				<path d="m-88.481 33.846h-0.58734q-0.10181 0-0.16446-0.0509t-0.09398-0.12922l-0.52469-1.3548h-2.5178l-0.52469 1.3548q-0.02741 0.07048-0.09398 0.1253t-0.16446 0.05482h-0.58734l2.2437-5.6111h0.77138zm-3.6768-2.0831h2.0949l-0.88102-2.2828q-0.08614-0.21144-0.16837-0.52861-0.04307 0.16054-0.08614 0.29759-0.03916 0.13313-0.07831 0.23494z"/>
				<path d="m-83.1 33.208h2.4277v0.63825h-3.1873v-5.6111h0.75963z"/>
				<path d="m-61.107 32.687q0.06265 0 0.11355 0.0509l0.29759 0.325q-0.34458 0.3994-0.83794 0.62258-0.48945 0.22319-1.1825 0.22319-0.60692 0-1.1003-0.20753-0.49337-0.21144-0.84186-0.58734-0.34849-0.37982-0.54036-0.90843t-0.19187-1.1629 0.20361-1.1629q0.20753-0.52861 0.57951-0.90843 0.37198-0.37982 0.88885-0.58734 0.52078-0.21144 1.1473-0.21144 0.61867 0 1.0651 0.19187 0.4503 0.19187 0.79879 0.52078l-0.24668 0.34849q-0.02741 0.03916-0.06265 0.06657-0.03524 0.02349-0.10181 0.02349-0.0509 0-0.10964-0.03524-0.05482-0.03916-0.13313-0.09398-0.07831-0.05482-0.18404-0.11747-0.10572-0.06265-0.2506-0.11747-0.14488-0.05482-0.33674-0.09006-0.19186-0.03916-0.44247-0.03916-0.4503 0-0.8262 0.15662-0.37198 0.15271-0.64216 0.43855-0.27018 0.28584-0.42289 0.69698-0.14879 0.41114-0.14879 0.92017 0 0.52469 0.14879 0.93584 0.15271 0.41114 0.41114 0.69698 0.26235 0.28192 0.61867 0.43072 0.35632 0.14879 0.76746 0.14879 0.2506 0 0.4503-0.02741 0.1997-0.03132 0.36807-0.09398 0.17229-0.06265 0.31717-0.15663 0.14879-0.09789 0.29759-0.23102 0.06657-0.05873 0.12922-0.05873z"/>
				<path d="m-52.32 28.235v0.61867h-2.694v1.8638h2.181v0.59518h-2.181v1.9147h2.694v0.61867h-3.4575v-5.6111z"/>
				<path d="m-46.927 28.235q0.10181 0 0.14879 0.02741 0.0509 0.02349 0.11355 0.10181l3.25 4.2289q-0.01175-0.10181-0.01566-0.19578-0.0039-0.09789-0.0039-0.18795v-3.9744h0.66566v5.6111h-0.38373q-0.09006 0-0.15271-0.03133-0.05873-0.03133-0.11747-0.10572l-3.2461-4.225q0.0078 0.09789 0.01175 0.19187 0.0039 0.09398 0.0039 0.17229v3.9979h-0.66566v-5.6111h0.39156z"/>
				<path d="m-33.662 28.235v0.63825h-1.8129v4.9728h-0.75963v-4.9728h-1.8208v-0.63825z"/>
				<path d="m-28.115 31.504v2.3415h-0.75572v-5.6111h1.5858q0.53252 0 0.92017 0.10964 0.38765 0.10572 0.63825 0.30933 0.25452 0.20361 0.3759 0.49337 0.12138 0.28584 0.12138 0.64216 0 0.29759-0.09398 0.55602-0.09398 0.25843-0.27409 0.46596-0.1762 0.20361-0.43464 0.34849-0.25452 0.14488-0.57951 0.21928 0.14096 0.08223 0.2506 0.23885l1.6367 2.228h-0.67349q-0.20753 0-0.30542-0.16054l-1.4566-2.0048q-0.06657-0.09397-0.14488-0.13313-0.07831-0.04307-0.23494-0.04307zm0-0.5521h0.79487q0.33283 0 0.58343-0.07831 0.25452-0.08223 0.42289-0.22711 0.17229-0.14879 0.25843-0.35241 0.08614-0.20361 0.08614-0.4503 0-0.5012-0.33283-0.75572-0.32891-0.25452-0.98282-0.25452h-0.83011z"/>
				<path d="m-16.528 28.235v0.61867h-2.694v1.8638h2.181v0.59518h-2.181v1.9147h2.694v0.61867h-3.4575v-5.6111z"/>
			</g>
			<rect x="-143.14" y="24.579" width="131.65" height="12.922" fill="none" stroke="#fff" stroke-width=".64193"/>
		</g>
		<path d="m-143.46 42.323 47.741 35.632a23.155 23.155 0 0 1 -4.7498 -13.975 23.155 23.155 0 0 1 14.993 -21.657zm74.258 0a23.155 23.155 0 0 1 15.043 21.657 23.155 23.155 0 0 1 -4.7222 13.955l47.713-35.611z" fill="#e6e6e6" opacity=".07"/>
		<g transform="matrix(.92204 0 0 .92204 -309.68 -27.334)" fill="#e6e6e6" opacity=".1">
			<path d="m251.36 88.529 0.17925 9.675c0.30841-0.09576 0.63383-0.17295 0.96712-0.2391l0.17484-9.4359c0.40701-0.23123 0.68454-0.66344 0.68454-1.165 0-0.74282-0.602-1.3451-1.3451-1.3451s-1.3452 0.60232-1.3452 1.3451c0 0.50152 0.27753 0.93373 0.68454 1.165z"/>
			<path d="m247.51 94.139c2.6865 0 1.9125 1.1593 3.5982 1.2843l-0.1172-6.3203c-0.65776-0.46844-2.0552-1.3656-3.1137-1.3656-1.5817 0-2.8393 1.4438-5 2.0574-2.5325 0.71888-5.0385 0.65934-5.0385 1.2308 0 0.68486 1.7128 0.87198 1.7128 0.87198s-0.11215 0.90601 1.6627 0.95263c0 0-0.028 0.72865 1.4384 0.6165 0 0 0.25233 0.68202 1.5505 0.50435 0 0 0.0655 0.76614 1.7377 0.2054 0 0 0.5138 0.50467 1.5691-0.03748z"/>
			<path d="m266.19 91.026c0-0.57114-2.506-0.51191-5.0385-1.2308-2.1604-0.61335-3.4186-2.0574-5-2.0574-1.0585 0-2.4559 0.89719-3.1137 1.3656l-0.11719 6.3203c1.6857-0.12506 0.91167-1.2843 3.5982-1.2843 1.0556 0.54184 1.5691 0.03749 1.5691 0.03749 1.6721 0.56043 1.7377-0.2054 1.7377-0.2054 1.2985 0.17736 1.5505-0.50435 1.5505-0.50435 1.4664 0.11215 1.4384-0.6165 1.4384-0.6165 1.7752-0.04662 1.6627-0.95263 1.6627-0.95263s1.7128-0.18712 1.7128-0.87198z"/>
			<path d="m256.02 95.465c-0.0359-5e-3 -0.0734-0.0073-0.11057-0.01107-0.62942-0.281-2.5504 0.27785-2.5504 0.843 0 0.5683 2.0612 0.90947 2.6553 0.53302 0.41047 0.09797 0.54908 0.31156 0.54908 0.41205 0 0.47096-1.5789 0.7066-2.6232 0.86222-0.95829 0.14302-1.949 0.29077-2.7416 0.61335-1.3436 0.54625-1.6258 1.4422-1.6258 2.0974 0 0.81339 0.37709 1.3852 0.87671 1.8281 0.33172-0.2536 0.68959-0.45994 1.0068-0.64297 0.0501-0.029 0.0964-0.0561 0.14302-0.0835 2e-3 -2e-3 5e-3 -3e-3 7e-3 -4e-3 0.0177-0.0101 0.0365-0.0211 0.0536-0.0315 0 0-3.2e-4 -3.1e-4 -6.3e-4 -3.1e-4 0.34464-0.20351 0.60201-0.37141 0.77527-0.52609l0.0227-1.2365c-0.37268 0.091-0.68014 0.195-0.88585 0.32007l0.0258 1.3978c-0.4319-0.30873-0.67951-0.60831-0.67951-1.0207 0-0.83512 1.3348-1.0988 3.2208-1.3804 0.86883-0.12979 1.6895-0.25202 2.3485-0.49616 1.1747-0.43505 1.4217-1.1628 1.4217-1.6964 0-0.73463-0.5913-1.6044-1.8889-1.777z"/>
			<path d="m251.06 98.371c0.0662-0.02678 0.1342-0.05229 0.20287-0.07718-0.38748-0.07183-0.78504-0.13136-1.1776-0.18996-1.0446-0.15594-2.6235-0.39158-2.6235-0.86222 0-0.10049 0.13893-0.31408 0.5494-0.41205 0.59414 0.37645 2.655 0.03528 2.655-0.53302 0-0.56515-1.921-1.124-2.5504-0.843-0.0369 0.0038-0.0743 6e-3 -0.11025 0.01108-1.2979 0.17263-1.8889 1.0424-1.8889 1.7774 0 0.53365 0.24666 1.2614 1.4214 1.6964 0.60075 0.22272 1.3363 0.344 2.1198 0.46182 0.27754-0.38055 0.71542-0.74975 1.4022-1.0292z"/>
			<path d="m252.32 103.49c0.95137-0.54877 2.1352-1.2321 2.1352-2.6736 0-0.30463-0.0608-0.66124-0.26115-1.0103-0.5787 0.08632-1.1347 0.1761-1.6022 0.28257 0.33203 0.18335 0.51853 0.41552 0.51853 0.72771 0 0.62028-0.55255 0.9835-1.4623 1.5086-0.87986 0.5075-1.9752 1.1394-1.9752 2.402 0 0.83198 0.51979 1.4406 0.99989 1.8697 0.16948-0.1739 0.32762-0.29865 0.45552-0.39945 0.0904-0.0693 0.16917-0.12853 0.24036-0.1824 0.0923-0.0696 0.22714-0.19248 0.22714-0.19248l0.0797-0.0643 0.20287-0.16287c0.11971-0.0961 0.32385-0.25926 0.49081-0.43032l0.0233-1.2588c0.39693 0.2706 0.62343 0.51506 0.62343 0.82095 0 0.35283-0.32605 0.69273-0.8556 1.1208-0.0161 0.0129-0.20162 0.17925-0.21989 0.19532-0.11939 0.10238-0.31471 0.24351-0.5809 0.44764-0.13262 0.10459-0.28321 0.22367-0.44166 0.38937-0.0788 0.0829-0.15878 0.17799-0.23249 0.29234-0.0731 0.11372-0.13924 0.24793-0.18051 0.3963-0.041 0.14869-0.0542 0.30589-0.0413 0.4549l0.0139 0.1049c7e-3 0.0375 0.0132 0.0721 0.0227 0.10774 0.0177 0.0706 0.0403 0.13956 0.0684 0.20508 0.11151 0.26651 0.28888 0.46655 0.46214 0.62343 0.15121 0.13609 0.30463 0.24572 0.45237 0.34779 0.0176-0.0221 0.0353-0.0447 0.0542-0.0674 0.11247-0.13578 0.23249-0.26179 0.34841-0.3837 2e-3 -2e-3 4e-3 -4e-3 6e-3 -7e-3l0.0687-0.0721c0.11688-0.12349 0.24856-0.26557 0.34684-0.40197l0.0142-0.76456c-0.052 0.0262-0.10364 0.0523-0.15657 0.0794-0.0936 0.0488-0.21547 0.11498-0.30494 0.17862-0.0646 0.046-0.14081 0.11467-0.14081 0.11467l0.0126 0.69683c-0.0608-0.0699-0.11814-0.13956-0.1676-0.20949-0.10301-0.14365-0.16853-0.28573-0.18365-0.4048-4e-3 -0.0299-6e-3 -0.0586-5e-3 -0.0863-3.1e-4 -0.0135 1e-3 -0.029 3e-3 -0.0406 9.6e-4 -4e-3 2e-3 -8e-3 3e-3 -0.012 3.1e-4 -6.3e-4 6.2e-4 -6e-3 1e-3 -0.0129l2e-3 -0.0189c9e-3 -0.0482 0.0233-0.0873 0.0438-0.12128 0.0403-0.0658 0.11247-0.13609 0.21611-0.20949 0.10175-0.0725 0.22776-0.14208 0.35125-0.20666 0.25076-0.12884 0.49773-0.24792 0.6732-0.34936 0.0441-0.0249 0.23879-0.14018 0.33015-0.21359 0.53081-0.42559 1.3628-1.1215 1.3628-2.1733 0-0.69715-0.33456-1.2018-0.78158-1.5997-0.35377 0.27187-0.73431 0.49175-1.0717 0.68644-0.0387 0.0224-0.0765 0.0444-0.11404 0.0662-1e-3 9.6e-4 -2e-3 2e-3 -4e-3 2e-3 -6e-3 3e-3 -0.0111 7e-3 -0.0167 9e-3 -0.2936 0.17168-0.5472 0.32794-0.72266 0.47096l0.0246 1.3184c-0.40993-0.35178-0.65628-0.64822-0.65628-0.95379-3.1e-4 -0.45332 0.49175-0.76991 1.3017-1.2374z"/>
			<path d="m253.35 107.17c-0.0107-0.0167-0.0217-0.0321-0.0328-0.0479-0.0457 0.0369-0.0891 0.0721-0.1301 0.10459l-0.0381 0.028-0.1805 0.11498c-0.0343 0.0205-0.0734 0.0441-0.11562 0.0674-0.12474 0.0721-0.2832 0.15247-0.45174 0.23753 0.0986 0.0712 0.16759 0.13861 0.20697 0.20288 0.0202 0.0337 0.0343 0.0728 0.0438 0.12128l2e-3 0.0189c6.2e-4 7e-3 9.6e-4 0.0123 1e-3 0.0129 6.2e-4 4e-3 2e-3 8e-3 3e-3 0.012 9.6e-4 0.0117 2e-3 0.0271 2e-3 0.0406 9.6e-4 0.028-6.2e-4 0.0567-5e-3 0.0863-0.0151 0.11908-0.0806 0.26115-0.18365 0.4048-0.10208 0.14428-0.23501 0.28919-0.37299 0.43473-0.13798 0.14618-0.28258 0.29424-0.41489 0.45301-0.13168 0.15908-0.25233 0.33203-0.3292 0.52073-0.0778 0.18838-0.10238 0.38905-0.0772 0.56137 0.0261 0.18555 0.1175 0.32542 0.20886 0.42371 0.0933 0.0986 0.1887 0.16192 0.2684 0.20791 8e-3 5e-3 0.0151 7e-3 0.0236 0.0123l0.0117 0.63289c0 0.12632 0.10238 0.22902 0.22902 0.22902s0.22871-0.10239 0.22902-0.22902l0.0117-0.6332c8e-3 -4e-3 0.0148-7e-3 0.0236-0.012 0.0797-0.046 0.17515-0.10963 0.2684-0.20791 0.0914-0.0983 0.18271-0.23816 0.20886-0.42371 0.0255-0.17231 6.3e-4 -0.3733-0.0772-0.56137-0.0451-0.1112-0.10647-0.2161-0.17515-0.31597-0.0797 0.0539-0.15058 0.10491-0.22304 0.15657v-3e-3c-0.0337 0.0239-0.0652 0.0476-0.097 0.0715-7e-3 5e-3 -0.0151 0.0104-0.0217 0.0154l3.1e-4 3.2e-4c-0.0139 0.0107-0.0293 0.0211-0.0428 0.0318-0.14239 0.11121-0.24414 0.21201-0.31124 0.30873-0.0192 0.0274-0.0353 0.0558-0.0498 0.0847l0.0142 0.77465c-0.0602-0.0583-0.12569-0.13042-0.17956-0.22273-0.058-0.0992-0.0977-0.22492-0.0851-0.34873 0.0113-0.13514 0.0599-0.27029 0.14617-0.39409 0.0863-0.12475 0.20823-0.23942 0.34999-0.34936 0.14176-0.11089 0.30274-0.21706 0.47253-0.33235 0.16917-0.11561 0.3481-0.23879 0.52357-0.39693 0.17358-0.15688 0.35062-0.35724 0.46245-0.62343 0.028-0.0655 0.051-0.13483 0.0684-0.20508 9e-3 -0.0356 0.0161-0.0703 0.0227-0.10774l0.0139-0.10491c0.0132-0.14932 0-0.30652-0.0413-0.45489-0.0413-0.14901-0.10742-0.28321-0.18051-0.39693zm-1.0692 2.8503c0.0362 0.0393 0.0693 0.0797 0.098 0.12097 0.0863 0.12381 0.13514 0.25895 0.14617 0.3941 0.0129 0.12412-0.0268 0.24949-0.0851 0.34873-0.0536 0.0923-0.11908 0.16444-0.17925 0.22272z"/>
		</g>
		<circle id="outer-circle" cx="-77.313" cy="63.98" r="21.344" fill="none" opacity=".25" stroke="url(#linearGradient4681)" stroke-width=".62627"/>
		<circle id="inner-circle" transform="rotate(165)" cx="91.238" cy="-41.79" r="19.524" fill="none" opacity=".25" stroke="url(#linearGradient4673)" stroke-width=".62619"/>
	</g>
</svg>
