<?xml version="1.0" encoding="UTF-8"?>
<svg width="300" height="300" version="1.1" viewBox="0 0 79.374998 79.375002" xmlns="http://www.w3.org/2000/svg" xmlns:cc="http://creativecommons.org/ns#" xmlns:dc="http://purl.org/dc/elements/1.1/" xmlns:rdf="http://www.w3.org/1999/02/22-rdf-syntax-ns#" xmlns:xlink="http://www.w3.org/1999/xlink">
	<title>Heronswood About Icon</title>
	<defs>
		<linearGradient id="linearGradient4548" x1="255.83" x2="255.83" y1="161.6" y2="218.4" gradientTransform="matrix(1.8479 0 0 1.8479 -411.67 -266.13)" gradientUnits="userSpaceOnUse" xlink:href="#linearGradient4556"/>
		<linearGradient id="linearGradient4556">
			<stop stop-color="#4d4d4d" offset="0"/>
			<stop stop-color="#4d4d4d" stop-opacity="0" offset="1"/>
		</linearGradient>
		<linearGradient id="linearGradient4550" x1="254.07" x2="254.07" y1="163.91" y2="215.59" gradientTransform="matrix(1.8479 0 0 1.8479 -506.22 -424.56)" gradientUnits="userSpaceOnUse" xlink:href="#linearGradient4556"/>
	</defs>
	<metadata>
		<rdf:RDF>
			<cc:Work rdf:about="">
				<dc:format>image/svg+xml</dc:format>
				<dc:type rdf:resource="http://purl.org/dc/dcmitype/StillImage"/>
				<dc:title>Heronswood About Icon</dc:title>
				<dc:creator>
					<cc:Agent>
						<dc:title>David Matthew</dc:title>
					</cc:Agent>
				</dc:creator>
			</cc:Work>
		</rdf:RDF>
	</metadata>
	<g transform="translate(-18.015 -33.301)">
		<circle cx="57.702" cy="72.988" r="39.114" fill="none" stroke="url(#linearGradient4548)" stroke-width="1.1478"/>
		<circle transform="rotate(165)" cx="-36.845" cy="-85.436" r="35.778" fill="none" stroke="url(#linearGradient4550)" stroke-width="1.1475"/>
		<path d="m57.702 58.396c-5.037 0-9.1204 3.6804-9.1204 9.1203 0 1.9606 0.84232 4.6256 1.6873 6.2018l7.4331 13.863 7.4331-13.863c0.84496-1.5762 1.6873-4.2412 1.6873-6.2018 0-5.44-4.0833-9.1203-9.1204-9.1203zm0 5.1074c2.2163 0 4.013 1.7967 4.013 4.0129 0 2.2163-1.7967 4.013-4.013 4.013s-4.013-1.7967-4.013-4.013c0-2.2162 1.7967-4.0129 4.013-4.0129z" color="#000000" fill="#7b7b7b" fill-opacity=".99608" overflow="visible"/>
	</g>
</svg>
