<?xml version="1.0" encoding="UTF-8"?>
<svg version="1.1" viewBox="0 0 79.374998 79.375002" xmlns="http://www.w3.org/2000/svg" xmlns:cc="http://creativecommons.org/ns#" xmlns:dc="http://purl.org/dc/elements/1.1/" xmlns:rdf="http://www.w3.org/1999/02/22-rdf-syntax-ns#" xmlns:xlink="http://www.w3.org/1999/xlink">
	<title>Heronswood About Icon</title>
	<defs>
		<linearGradient id="linearGradient4548" x1="255.83" x2="255.83" y1="161.6" y2="218.4" gradientTransform="matrix(1.8479 0 0 1.8479 -411.67 -266.13)" gradientUnits="userSpaceOnUse" xlink:href="#linearGradient4556"/>
		<linearGradient id="linearGradient4556">
			<stop stop-color="#4d4d4d" offset="0"/>
			<stop stop-color="#4d4d4d" stop-opacity="0" offset="1"/>
		</linearGradient>
		<linearGradient id="linearGradient4550" x1="254.07" x2="254.07" y1="163.91" y2="215.59" gradientTransform="matrix(1.8479 0 0 1.8479 -506.22 -424.56)" gradientUnits="userSpaceOnUse" xlink:href="#linearGradient4556"/>
	</defs>
	<metadata>
		<rdf:RDF>
			<cc:Work rdf:about="">
				<dc:format>image/svg+xml</dc:format>
				<dc:type rdf:resource="http://purl.org/dc/dcmitype/StillImage"/>
				<dc:title>Heronswood About Icon</dc:title>
				<dc:creator>
					<cc:Agent>
						<dc:title>David Matthew</dc:title>
					</cc:Agent>
				</dc:creator>
			</cc:Work>
		</rdf:RDF>
	</metadata>
	<g transform="translate(-18.015 -33.301)">
		<path d="m53.298 87.264c-0.80705-0.37579-1.3183-0.98611-1.5492-1.8493-0.16277-0.60857-0.13072-0.73341 2.0897-8.1448 1.3873-4.6308 2.2258-7.6431 2.1791-7.829-0.11839-0.47147-0.55806-0.52812-1.1351-0.14622-0.27647 0.18296-1.1065 1.0731-1.8444 1.9781l-1.3417 1.6454-0.04084-0.76915c-0.0346-0.64916 0.01545-0.85439 0.32073-1.3156 0.54603-0.82512 2.4416-2.6746 3.4035-3.3206 1.8865-1.2671 3.2461-1.6025 4.4303-1.0931 0.80577 0.34663 1.1594 0.68744 1.4601 1.4073 0.36066 0.8632 0.2653 1.7177-0.46038 4.1244-1.7645 5.8519-3.2927 10.915-3.4754 11.513-0.35567 1.1653 0.13775 1.6187 1.1085 1.0187 0.24358-0.15053 1.0639-1.0307 1.823-1.956 0.75906-0.92525 1.4074-1.655 1.4407-1.6217 0.03333 0.03333 0.01746 0.43155-0.03512 0.88496-0.08464 0.72905-0.19023 0.95188-0.91342 1.9273-1.5447 2.0833-2.7989 3.1129-4.3917 3.6052-1.1744 0.36294-2.2045 0.34311-3.0682-0.05903zm6.2704-23.399c-1.1421-0.60362-1.77-1.9651-1.487-3.2243 0.37012-1.6473 2.0263-2.6009 3.6815-2.1197 1.2378 0.35982 1.9997 1.407 1.9947 2.7413-0.0063 1.79-1.1183 2.879-2.9245 2.8652-0.49628-0.0021-0.95568-0.09902-1.2646-0.26242z" fill="#7a7a7a" fill-opacity=".98431" stroke-width=".1348"/>
		<circle cx="57.702" cy="72.988" r="39.114" fill="none" stroke="url(#linearGradient4548)" stroke-width="1.1478"/>
		<circle transform="rotate(165)" cx="-36.845" cy="-85.436" r="35.778" fill="none" stroke="url(#linearGradient4550)" stroke-width="1.1475"/>
	</g>
</svg>
