<svg version="1.1" viewBox="0 0 299.4 59.55" xmlns="http://www.w3.org/2000/svg"><title>Let's Fund It</title><g fill="#fff"><path d="m97.66 45.61q-1.655 0-4.312-0.07697-3.464-0.07697-4.312-0.09624l-5.755-0.07697q-0.8662 0.0191-2.483-0.07697-0.5582-0.09624-0.5582-0.5967 0-2.098 0.05764-6.275 0.07697-4.196 0.07697-6.294 0-2.233-0.1345-6.679-0.1345-4.466-0.1345-6.698 0-0.4235 0.5774-0.4235t1.713 0.05775q1.154 0.05775 1.713 0.05775 0.6352 0 1.886-0.05775 1.251-0.07697 1.886-0.07697 0.2889 0 0.2695 0.3657l-0.01854 0.2502q-0.2309 3.618-0.5196 10.87l-0.01854 5.081q0 2.464 0.01854 3.599 0.01854 0.231 0.03877 0.462 0.01854 0.231 0.2889 0.2888 0.01854 0 0.5004 0 1.732 0 5.177-0.1732 3.464-0.1925 5.196-0.1925 0.5196 0 0.5196 0.4427 0 3.291-0.4812 5.678-0.09629 0.5004-0.4042 0.5967-0.09629 0.03876-0.7891 0.03876z"/><path d="m119 34.84q0 1.944-1.251 2.214-0.2119 0.0382-3.984 0.4235-2.271 0.2502-6.775 0.5967 0.2695 1.251 1.636 1.905 1.116 0.5389 2.541 0.5389 1.713 0 3.445-0.9238 0.7314-0.462 1.463-0.9238 0.4042 0.1925 1.347 1.963 0.9623 1.771 0.9623 2.252 0 0.1347-0.2889 0.4427-2.348 2.522-7.294 2.522-4.581 0-7.391-2.676-2.888-2.714-2.888-7.256 0-4.427 2.579-7.256 2.656-2.926 7.044-2.926 3.695 0 6.275 2.695 2.579 2.695 2.579 6.41zm-6.737-1.174q0-1.193-0.8469-2.098-0.8469-0.9046-2.021-0.9046-1.212 0-2.002 1.02-0.7314 0.9431-0.7314 2.214 0 0.5196 0.5389 0.5196 1.424 0 4.427-0.4427 0.6351-0.09624 0.6351-0.3079z"/><path d="m135.5 39.65q0 0.5774-0.1539 1.751-0.1345 1.174-0.1345 1.732 0 0.5389-0.1156 0.693t-0.6352 0.4427q-2.483 1.366-5.504 1.366-5.562 0-5.562-4.254 0-1.27 0.0962-3.811 0.0964-2.56 0.0964-3.83 0-0.8469-0.9816-0.8469-0.077 0-0.2502 0-0.1732 0.0191-0.2502 0.0191-0.7313 0-0.7313-0.5196 0-0.3079 0.0388-0.9431 0.0577-0.6352 0.0577-0.9431 0-0.4042-0.0577-1.231-0.0388-0.8276-0.0388-1.231 0-0.385 1.231-0.4235 0.6928-0.0191 0.7506-0.385 0.1156-0.7314 0.077-2.31-0.077-2.483-0.077-2.368 0-2.233 0.4235-2.233 0.5197 0 1.482 0.231 1.097 0.2502 1.52 0.2888 0.9816 0.1347 2.965 0.3657 0.4812 0.03877 0.4812 0.3272 0 0.7699-0.1345 2.329-0.1156 1.559-0.1156 2.348 0 0.9431 0.5581 0.9431 0.6737 0 2.04-0.05775 1.366-0.05775 2.059-0.05775 0.4235 0 0.4235 0.2888 0 0.4427-0.0962 1.328-0.0964 0.8854-0.0964 1.328 0 0.462 0.0186 1.347t0.0186 1.347q0 0.4042-0.5581 0.4042-0.385 0-1.289-0.0191-0.9046-0.03877-1.289-0.03877h-1.443q-0.2889 0-0.2889 0.8469 0 0.462 0 1.366 0.0186 0.9238 0.0186 1.366 0 1.617 0.3658 2.233 0.5197 0.8276 2.04 0.8276 0.4812 0 1.366-0.2118 0.9046-0.231 1.27-0.231 0.4042 0 0.4042 0.4235z"/><path d="m145.1 23.01q0 2.175-1.212 4.658-1.116 2.291-2.81 3.926-0.385 0.385-0.6159 0.385-0.1925 0-0.4042-0.2695-0.1156-0.1347-1.193-1.058-0.9623-0.8276-0.9623-0.9238 0 0.1925 0.9816-1.308 0.9816-1.52 0.9816-3.156 0-1.251-1.443-2.733-1.424-1.501-1.424-1.578 0-0.3079 0.9623-1.077 0.6352-0.4812 1.27-0.9623 0.5967-0.5582 1.174-1.097 0.9816-0.9046 1.116-0.9046 0.1925 0 0.5581 0.2695 3.021 2.368 3.021 5.832z"/><path d="m159.7 29.72q0 0.1925-0.2889 0.5196-0.5389-0.1347-1.077-0.1347-1.135 0-1.905 0.5004-0.9238 0.5774-0.9238 1.636 0 0.6737 0.9816 1.713 1.482 1.559 1.828 2.098 0.9816 1.463 0.9816 3.137 0 0.9816-0.385 2.079-0.4427 1.212-1.116 1.771-1.424 1.231-3.329 2.079-2.059 0.8854-3.792 0.8854-0.385 0-1.732-2.079-1.328-2.098-1.328-2.56 0-0.1732 0.2119-0.2118 1.347-0.2502 2.714-0.5004 1.694-0.5389 1.694-1.771 0-0.8469-0.9816-1.963-1.751-1.944-1.828-2.059-0.9816-1.385-0.9816-2.926 0-2.888 2.926-4.909 2.618-1.79 5.601-1.79 0.3081 0 1.52 2.079 1.212 2.059 1.212 2.406z"/><path d="m194.2 24.56q0 0.2118-0.385 0.2118-1.443 0-4.389-0.2503-2.926-0.2502-4.389-0.2502-1.848 0-2.156 0.1347-0.7121 0.3272-0.7121 1.848 0 1.828 0.9239 2.079 0.3849 0.09624 1.174 0.09624 1.328 0 3.965-0.1347 2.656-0.1539 3.984-0.1539 0.6352 0 0.6352 3.387 0 2.945-0.2119 3.426-0.1345 0.3465-0.5197 0.3465 0.2502 0-1.212-0.1347-2.059-0.1925-6.236-0.1925-1.347 0-1.52 0.0191-0.9816 0.1539-0.9816 0.8276 0 2.733 0.2309 6.294 0.1925 3.214 0.1925 2.868 0 0.5004-1.212 0.5774 0.3271-0.0191-1.713-0.0191-3.599 0-4.639-0.2503-0.5581-0.1347-0.5581-0.5967 0-2.137 0.1345-6.41 0.1539-4.292 0.1539-6.429 0-2.541-0.2309-6.39-0.3464-5.947-0.3657-6.39l-0.0185-0.231q-0.0186-0.4812 0.5774-0.4812 1.424 0 4.292 0.05775 2.888 0.05775 4.331 0.05775 1.54 0 4.62-0.231 3.098-0.231 4.639-0.231 0.9623 0 1.077 0.7891 0 0.8276 0.077 2.483 0.0382 0.4235 0.2502 1.636 0.1925 1.058 0.1925 1.636z"/><path d="m216.2 27.79q0 1.424-0.1345 4.273-0.1345 2.849-0.1345 4.273 0 1.385 0.0963 4.157 0.0964 2.772 0.0964 4.138 0 0.5196-0.4812 0.6544-0.7314 0.1925-3.098 0.1925-2.098 0-2.926-0.1155-0.3658-0.05775-0.462-0.462-0.0577-0.5774-0.1156-1.154-0.0962-0.8854-0.2695-0.8854 0.2695 0-1.944 1.308-2.214 1.308-4.023 1.308-5.1 0-6.044-4.6-0.4235-2.137-0.4235-6.198 0-4.389 0.7121-6.929 0.2119-0.7891 0.7891-0.7891 0.8854 0 2.695 0.0191 1.809 0.0191 2.695 0.0191 0.5967 0 0.5967 0.5004 0 0.1347-0.0388 0.4042-0.4042 2.618-0.4042 5.312 0 3.349 0.2119 4.581 0.3464 2.117 2.522 2.117 0.8469 0 1.828-0.7506 1-0.7506 1.039-1.559 0.0388-0.7121 0.0388-9.662 0-0.6352 0.0964-0.7506 0.1156-0.1925 0.6929-0.1925 0.9431 0 2.83 0.0191 1.905 0.0191 2.849 0.0191 0.5774 0 0.6737 0.2888 0.0382 0.154 0.0382 0.462z"/><path d="m238.5 44.73q0 0.5196-0.5389 0.5967-0.5389 0.07697-2.81 0.07697-2.425 0-3.002-0.1155-0.5774-0.1155-0.5774-0.7891 0-0.9046 0.0577-2.733 0.0577-1.828 0.0577-2.753 0-0.7121-0.0388-2.117-0.0382-1.424-0.0382-2.137 0-2.637-2.291-2.637-0.7506 0-1.751 0.6544-1.077 0.7314-1.077 1.443v10.39q0 0.6352-0.5967 0.7121-0.6737 0.07697-2.753 0.07697-2.252 0-2.926-0.1155-0.5967-0.09624-0.5967-0.6352 0-1.501 0.0185-4.523 0.0186-3.021 0.0186-4.543 0-4.793-0.7506-7.525-0.0388-0.1732-0.0388-0.2888 0-0.3079 0.2889-0.4235 1.212-0.1347 3.233-0.4235 3.06-0.5967 3.445-0.5967 0.2119 0 0.327 1.308 0.1156 1.289 0.3271 1.289-0.2119 0 2.059-1.328 2.291-1.347 4.003-1.347 2.445 0 4.08 1.154 1.828 1.328 1.828 3.695v6.14q0 1.251 0.0186 3.753 0.0185 2.483 0.0185 3.734z"/><path d="m262 17.98c0-0.2823-0.0513 0.1411-0.1539 1.27-0.1413 1.425-0.2503 3.247-0.327 5.466-0.1026 2.515-0.1539 5.376-0.1539 8.585 0 5.299 0.1476 9.071 0.4427 11.31 0.0259 0.2438 0.0388 0.3978 0.0388 0.462 0 0.1412-0.0963 0.2246-0.2889 0.2502-0.4619 0.06416-2.162 0.09624-5.1 0.09624-0.693 0-1.091-0.1347-1.193-0.4042-0.0259-0.4876-0.0515-0.9754-0.077-1.463-0.0124-0.1027-0.0637-0.2053-0.1539-0.3079-0.0771 0.03851-0.1734 0.1155-0.2889 0.231-1.386 1.36-3.118 2.04-5.196 2.04-2.707 0-4.876-0.9495-6.506-2.849-1.553-1.809-2.329-4.093-2.329-6.852 0-2.797 0.7636-5.1 2.291-6.91 1.617-1.925 3.798-2.888 6.544-2.888 1.938 0 3.445 0.616 4.523 1.848 0.1796 0.2053 0.308 0.3079 0.385 0.3079 0.1155 0 0.1732-0.1668 0.1732-0.5004 0-0.9882-0.0257-2.464-0.077-4.427s-0.077-3.432-0.077-4.408c0-0.3721 0.1026-0.5839 0.3078-0.6352 0.8209-0.0385 1.95-0.1155 3.387-0.231 2.566-0.3208 3.408-0.4787 3.406-0.4812 0.2823 0 0.4235 0.1604 0.4235 0.4812zm-7.256 17.69c0-1.013-0.3528-1.899-1.058-2.656-0.7056-0.7696-1.559-1.154-2.56-1.154-1.052 0-1.893 0.3848-2.522 1.154-0.616 0.757-0.9239 1.668-0.9239 2.733 0 1.039 0.3144 1.918 0.9431 2.637 0.6416 0.7696 1.475 1.154 2.502 1.154 1.027 0 1.886-0.3848 2.579-1.154 0.693-0.7696 1.039-1.674 1.039-2.714z"/><path d="m282.7 31.06q0 2.271 0.1156 6.833t0.1156 6.833q0 0.385-0.1732 0.4812-0.0388 0.0191-0.5004 0.07697-1.251 0.154-3.349 0.154-2.81 0-3.58-0.154-0.5581-0.1155-0.5581-0.5967 0 0.3079 0.1732-3.387 0.3464-7.795 0.3464-10.23 0-2.059-0.1345-6.178-0.1345-4.119-0.1345-6.178 0-0.4235 0.4427-0.4235 0.5967 0 1.79 0.05775 1.212 0.05775 1.809 0.05775t1.751-0.05775q1.174-0.05775 1.771-0.05775 0.5582 0 0.5582 0.4235 0 2.059-0.2309 6.178-0.2119 4.119-0.2119 6.178z"/><path d="m299.4 39.65q0 0.5774-0.1539 1.751-0.1345 1.174-0.1345 1.732 0 0.5389-0.1156 0.693t-0.6351 0.4427q-2.483 1.366-5.504 1.366-5.562 0-5.562-4.254 0-1.27 0.0962-3.811 0.0964-2.56 0.0964-3.83 0-0.8469-0.9816-0.8469-0.077 0-0.2502 0-0.1732 0.0191-0.2502 0.0191-0.7314 0-0.7314-0.5196 0-0.3079 0.0388-0.9431 0.0577-0.6352 0.0577-0.9431 0-0.4042-0.0577-1.231-0.0388-0.8276-0.0388-1.231 0-0.385 1.231-0.4235 0.6928-0.0191 0.7506-0.385 0.1156-0.7314 0.077-2.31-0.077-2.483-0.077-2.368 0-2.233 0.4235-2.233 0.5197 0 1.482 0.231 1.097 0.2502 1.52 0.2888 0.9816 0.1347 2.965 0.3657 0.4812 0.03877 0.4812 0.3272 0 0.7699-0.1345 2.329-0.1156 1.559-0.1156 2.348 0 0.9431 0.5581 0.9431 0.6737 0 2.04-0.05775 1.366-0.05775 2.059-0.05775 0.4235 0 0.4235 0.2888 0 0.4427-0.0963 1.328-0.0962 0.8854-0.0962 1.328 0 0.462 0.0186 1.347 0.0185 0.8854 0.0185 1.347 0 0.4042-0.5581 0.4042-0.385 0-1.289-0.0191-0.9045-0.03877-1.289-0.03877h-1.443q-0.2889 0-0.2889 0.8469 0 0.462 0 1.366 0.0186 0.9238 0.0186 1.366 0 1.617 0.3658 2.233 0.5197 0.8276 2.04 0.8276 0.4812 0 1.366-0.2118 0.9046-0.231 1.27-0.231 0.4042 0 0.4042 0.4235z"/><path d="m8.905 19.44c-0.4526 0.4526-1.987 2.048-2.819 3-0.8468 0.9359-1.493 1.629-1.946 2.082-0.3977 0.3977-1.031 0.9854-1.899 1.763-0.8538 0.7644-1.487 1.352-1.899 1.763-0.4114 0.4114-0.4521 0.7838-0.1231 1.112 1.734 1.734 4.383 4.284 7.947 7.655 2.3 2.176 4.077 3.883 5.615 5.376-0.8902 3.059-5.151 2.183-6.792 3.823-1.722 1.722-2.244 5.155 0.1622 7.524 2.407 2.369 5.54 1.784 7.222 0.1026 1.681-1.681 0.8484-6.009 3.687-7.045 0.0382-0.01404 0.07849-0.02528 0.117-0.03483 2.039 2.06 4.667 4.73 7.027 7.171 3.202 3.284 3.755 3.879 5.385 5.508 0.3887 0.3887 0.8168 0.4215 1.289 0.09854 1.227-1.076 2.143-1.932 2.745-2.564l6.241-6.06c0.4247-0.404 1.914-1.825 3.239-3.087 2.421 1.212 1.749 5.046 3.284 6.582 1.722 1.722 5.157 2.242 7.526-0.1642 2.369-2.407 1.784-5.54 0.1026-7.222-1.567-1.567-5.43-0.9502-6.79-3.155 0.6204-0.6116 1.962-1.58 1.747-2.384-0.4474-1.67-2.787-3.828-4.605-5.652-0.3438-0.3438-0.7034-0.3312-1.073 0.03876-1.234 1.234-1.799 1.952-4.118 4.57-2.32 2.59-3.204 3.606-4.439 4.841l-0.5358 0.5358c-0.2368 0.147-0.4513 0.1366-0.6447-0.02866-0.1933-0.1655-0.3855-0.3314-0.579-0.4968-0.8959-0.8681-4.166-4.124-6.079-6.038l-5.898-5.939c-5.43-5.841-9.468-10.24-12.11-13.22l-0.2709-0.3121c-0.2706-0.2975-0.5086-0.3453-0.7144-0.1396z"/><path d="m5.807 5.158c-2.279 2.364-1.749 5.72-0.05337 7.415 1.624 1.624 5.822 0.7793 6.767 3.736-0.359 0.3503-0.6881 0.6754-0.961 0.9482-0.3866 0.3866-0.3901 0.7562-0.01012 1.11 4.429 5.232 22.82 23.38 23.29 23.85 0.4691 0.4691 3.615-3.537 4.515-4.437 0.9-0.9 3.997-3.863 3.454-4.354-0.5431-0.4905-4.019-3.522-5.187-4.591-0.5109-0.4674-0.5124-1.145 0.0062-1.899 0.09714-0.1273 0.5825-0.6278 1.455-1.501 2.707-2.707 4.952-4.509 6.284-5.841 2.18-2.324 1.098-2.533-1.848-5.625-2.585-2.585-3.077-2.721-3.489-2.309-0.8606 0.8606-2.092 2.21-3.695 4.048-1.606 1.811-2.491 2.799-3.351 3.659-0.5113 0.5113-1.394 1.319-1.717 1.495-0.7896 0.4077-2.151-0.301-3.546-1.696-1.16-1.16-1.634-2.095-1.422-2.807 1.517-2.239 3.799-3.761 5.006-4.744 2.099-1.717 3.348-2.925 4.066-4.069 0.7178-1.144 0.429-2.068-0.4423-2.788-1.062-0.788-1.766-1.332-2.115-1.63-1.312-1.213-2.286-2.134-2.918-2.766-0.677-0.5272-1.326-0.4799-1.95 0.1437-3.3 4.273-7.452 8.127-10.97 11.52-0.04607-0.01012-0.09399-0.02416-0.1396-0.04101-2.839-1.036-2.006-5.364-3.687-7.045s-4.816-2.266-7.222 0.1026c-0.03764 0.03708-0.07466 0.07331-0.1108 0.1108z"/><path d="m59.46 31.06c0.288 0.288 0.2795 0.6393-0.02528 1.054-0.4071 0.5716-1.467 1.714-3.179 3.426-1.727 1.727-2.64 2.558-3.211 2.965-0.3715 0.2618-0.655 0.367-0.8504 0.3155-0.0836-0.02641-0.3037-0.2174-0.6603-0.5739-5.466-5.493-3.63-4.444-10.36-9.672-0.248-0.1908-0.4066-0.3201-0.4752-0.3888-0.2743-0.2743-0.2171-0.6057 0.1715-0.9944 0.403-0.4031 0.8193-0.7369 1.722-1.475 0.9171-0.7525 1.584-1.337 2.002-1.755 0.4174-0.4174 1.009-1.077 1.775-1.981 0.7662-0.9033 1.358-1.564 1.775-1.981 0.3454-0.3454 0.6553-0.381 0.9295-0.1067 0.05506 0.05506 0.1728 0.1974 0.3475 0.4342 3.123 4.515 6.032 6.723 10.04 10.73z"/></g></svg>
