<?xml version="1.0" encoding="UTF-8" standalone="no"?>
<svg
   version="1.1"
   viewBox="0 0 300 60.16"
   id="svg14"
   sodipodi:docname="letsfundit-logo.svg"
   inkscape:version="1.3.2 (091e20e, 2023-11-25)"
   xmlns:inkscape="http://www.inkscape.org/namespaces/inkscape"
   xmlns:sodipodi="http://sodipodi.sourceforge.net/DTD/sodipodi-0.dtd"
   xmlns="http://www.w3.org/2000/svg"
   xmlns:svg="http://www.w3.org/2000/svg">
  <defs
     id="defs14" />
  <sodipodi:namedview
     id="namedview14"
     pagecolor="#505050"
     bordercolor="#eeeeee"
     borderopacity="1"
     inkscape:showpageshadow="0"
     inkscape:pageopacity="0"
     inkscape:pagecheckerboard="0"
     inkscape:deskcolor="#505050"
     inkscape:zoom="2"
     inkscape:cx="137.5"
     inkscape:cy="33.75"
     inkscape:window-width="1920"
     inkscape:window-height="1011"
     inkscape:window-x="0"
     inkscape:window-y="0"
     inkscape:window-maximized="1"
     inkscape:current-layer="svg14" />
  <title
     id="title1">Let's Fund It</title>
  <path
     d="m 97.957795,45.91392 q -1.655172,0 -4.311843,-0.07697 -3.464267,-0.07697 -4.311843,-0.09624 l -5.755121,-0.07697 q -0.866167,0.0191 -2.482758,-0.07697 -0.558221,-0.09624 -0.558221,-0.596702 0,-2.09795 0.05764,-6.274861 0.07697,-4.195901 0.07697,-6.293851 0,-2.232883 -0.134533,-6.678659 -0.134532,-4.465766 -0.134532,-6.69765 0,-0.423488 0.577411,-0.423488 0.577411,0 1.713143,0.05775 1.154422,0.05775 1.713143,0.05775 0.635182,0 1.886056,-0.05775 1.251374,-0.07697 1.886057,-0.07697 0.288855,0 0.269465,0.365717 l -0.01854,0.250175 q -0.230884,3.61819 -0.51964,10.87456 l -0.01854,5.081458 q 0,2.463767 0.01854,3.599199 0.01854,0.230984 0.03877,0.461969 0.01854,0.230984 0.288855,0.288755 0.01854,0 0.50045,0 1.732133,0 5.17741,-0.173213 3.464267,-0.192504 5.1964,-0.192504 0.51964,0 0.51964,0.442679 0,3.291353 -0.481159,5.678159 -0.09629,0.50045 -0.404198,0.596702 -0.09629,0.03876 -0.789105,0.03876 z"
     id="path1"
     style="fill:#eab308;stroke:#292524;stroke-width:0.5997" />
  <path
     d="m 119.31711,35.13931 q 0,1.944027 -1.25137,2.213893 -0.2119,0.0382 -3.98401,0.423488 -2.27087,0.250175 -6.77461,0.596701 0.26946,1.251374 1.63618,1.905047 1.11644,0.538931 2.54073,0.538931 1.71314,0 3.44528,-0.923838 0.73143,-0.461969 1.46326,-0.923838 0.4042,0.192504 1.34733,1.963018 0.96232,1.771114 0.96232,2.251873 0,0.134733 -0.28886,0.442679 -2.34782,2.521738 -7.29435,2.521738 -4.58071,0 -7.3913,-2.675661 -2.88756,-2.713643 -2.88756,-7.25637 0,-4.426786 2.57871,-7.25637 2.65567,-2.925537 7.04448,-2.925537 3.69515,0 6.27486,2.694652 2.57871,2.694652 2.57871,6.409794 z m -6.73663,-1.174412 q 0,-1.193403 -0.84688,-2.097951 -0.84687,-0.904647 -2.02099,-0.904647 -1.21239,0 -2.00199,1.020489 -0.73144,0.943128 -0.73144,2.213893 0,0.51964 0.53893,0.51964 1.42429,0 4.42679,-0.442679 0.63508,-0.09624 0.63508,-0.307946 z"
     id="path2"
     style="fill:#eab308;stroke:#292524;stroke-width:0.5997" />
  <path
     d="m 135.80886,39.946905 q 0,0.577411 -0.15392,1.751124 -0.13454,1.174412 -0.13454,1.732134 0,0.53893 -0.11564,0.692953 -0.11564,0.154023 -0.63518,0.442678 -2.48276,1.366317 -5.50425,1.366317 -5.56221,0 -5.56221,-4.253872 0,-1.270365 0.0962,-3.811094 0.0964,-2.559719 0.0964,-3.830084 0,-0.846876 -0.98161,-0.846876 -0.077,0 -0.25017,0 -0.17322,0.0191 -0.25018,0.0191 -0.73133,0 -0.73133,-0.51964 0,-0.307946 0.0388,-0.943128 0.0577,-0.635182 0.0577,-0.943128 0,-0.404198 -0.0577,-1.231384 -0.0388,-0.827586 -0.0388,-1.231384 0,-0.385007 1.23138,-0.423488 0.69285,-0.0191 0.75063,-0.385008 0.11564,-0.731434 0.077,-2.309844 -0.077,-2.482758 -0.077,-2.367816 0,-2.232883 0.42348,-2.232883 0.51974,0 1.48226,0.230985 1.09745,0.250175 1.52024,0.288755 0.98161,0.134733 2.96452,0.365718 0.48116,0.03877 0.48116,0.327236 0,0.769915 -0.13453,2.328835 -0.11565,1.55922 -0.11565,2.347825 0,0.943129 0.55812,0.943129 0.67367,0 2.03998,-0.05775 1.36632,-0.05775 2.05897,-0.05775 0.42349,0 0.42349,0.288756 0,0.442678 -0.0962,1.328335 -0.0964,0.885357 -0.0964,1.328336 0,0.461969 0.0186,1.347326 0.0186,0.885357 0.0186,1.347326 0,0.404198 -0.55812,0.404198 -0.38501,0 -1.28936,-0.0191 -0.90464,-0.03877 -1.28935,-0.03877 h -1.44328 q -0.28886,0 -0.28886,0.846876 0,0.461969 0,1.366316 0.0186,0.923838 0.0186,1.366317 0,1.617191 0.36581,2.232883 0.51974,0.827586 2.03998,0.827586 0.48116,0 1.36632,-0.211794 0.90465,-0.230985 1.27036,-0.230985 0.4042,0 0.4042,0.423489 z"
     id="path3"
     style="fill:#eab308;stroke:#292524;stroke-width:0.5997" />
  <path
     d="m 145.40406,23.315225 q 0,2.174912 -1.21239,4.65767 -1.11644,2.290854 -2.8096,3.926036 -0.38501,0.385007 -0.61589,0.385007 -0.1925,0 -0.4042,-0.269465 -0.11564,-0.134732 -1.1934,-1.05847 -0.96232,-0.827586 -0.96232,-0.923838 0,0.192504 0.98161,-1.308346 0.98161,-1.520239 0.98161,-3.156421 0,-1.251374 -1.44328,-2.732633 -1.42429,-1.501249 -1.42429,-1.57821 0,-0.307946 0.96232,-1.077461 0.63518,-0.481159 1.27037,-0.962319 0.5967,-0.558221 1.17441,-1.097451 0.98161,-0.904647 1.11644,-0.904647 0.1925,0 0.55812,0.269465 3.02149,2.367815 3.02149,5.832082 z"
     id="path4"
     style="fill:#eab308;stroke:#292524;stroke-width:0.5997" />
  <path
     d="m 159.99676,30.02187 q 0,0.192504 -0.28886,0.51964 -0.53893,-0.134733 -1.07746,-0.134733 -1.13543,0 -1.90504,0.50045 -0.92384,0.577411 -0.92384,1.636182 0,0.673663 0.98161,1.713143 1.48226,1.55922 1.82808,2.09795 0.98161,1.463268 0.98161,3.137431 0,0.981609 -0.38501,2.07896 -0.44267,1.212393 -1.11644,1.771114 -1.42428,1.231384 -3.32933,2.07896 -2.05897,0.885357 -3.7921,0.885357 -0.38501,0 -1.73214,-2.07896 -1.32833,-2.097951 -1.32833,-2.55972 0,-0.173213 0.21189,-0.211794 1.34733,-0.250175 2.71364,-0.500449 1.69416,-0.538931 1.69416,-1.771114 0,-0.846877 -0.98161,-1.963018 -1.75113,-1.944028 -1.82809,-2.05897 -0.98161,-1.385308 -0.98161,-2.925537 0,-2.887555 2.92554,-4.908545 2.61769,-1.790104 5.6012,-1.790104 0.30814,0 1.52024,2.07896 1.21239,2.05897 1.21239,2.405797 z"
     id="path5"
     style="fill:#eab308;stroke:#292524;stroke-width:0.5997" />
  <path
     d="m 194.47951,24.86445 q 0,0.211794 -0.38501,0.211794 -1.44328,0 -4.3888,-0.250275 -2.92554,-0.250175 -4.38881,-0.250175 -1.84807,0 -2.15592,0.134733 -0.71214,0.327236 -0.71214,1.848076 0,1.828085 0.92394,2.07896 0.3849,0.09624 1.17441,0.09624 1.32833,0 3.96502,-0.134732 2.65567,-0.153923 3.984,-0.153923 0.63518,0 0.63518,3.387305 0,2.944527 -0.21189,3.426286 -0.13453,0.346527 -0.51974,0.346527 0.25018,0 -1.21239,-0.134733 -2.05897,-0.192503 -6.23588,-0.192503 -1.34733,0 -1.52024,0.0191 -0.98161,0.153923 -0.98161,0.827586 0,2.732633 0.23088,6.293852 0.19251,3.214392 0.19251,2.867565 0,0.50045 -1.2124,0.577411 0.32714,-0.0191 -1.71314,-0.0191 -3.5992,0 -4.63868,-0.250275 -0.55812,-0.134733 -0.55812,-0.596702 0,-2.136931 0.13453,-6.409793 0.15393,-4.291853 0.15393,-6.428784 0,-2.540729 -0.23089,-6.389804 -0.34643,-5.947025 -0.36572,-6.389803 l -0.0185,-0.230984 q -0.0186,-0.48116 0.57741,-0.48116 1.42429,0 4.29186,0.05775 2.88755,0.05775 4.33083,0.05775 1.54023,0 4.61969,-0.230984 3.09845,-0.230984 4.63868,-0.230984 0.96232,0 1.07746,0.789105 0,0.827586 0.077,2.482758 0.0382,0.423488 0.25018,1.636181 0.1925,1.058471 0.1925,1.636182 z"
     id="path6"
     style="fill:#0ea5e9;stroke:#292524;stroke-width:0.5997" />
  <path
     d="m 216.46851,28.092835 q 0,1.424288 -0.13453,4.272863 -0.13454,2.848574 -0.13454,4.272862 0,1.385307 0.0963,4.15692 0.0964,2.771614 0.0964,4.13793 0,0.519641 -0.48116,0.654373 -0.73144,0.192504 -3.09845,0.192504 -2.09795,0 -2.92554,-0.115542 -0.36581,-0.05775 -0.46197,-0.461969 -0.0577,-0.577411 -0.11564,-1.154423 -0.0962,-0.885357 -0.26946,-0.885357 0.26946,0 -1.94403,1.308346 -2.21389,1.308345 -4.02299,1.308345 -5.10045,0 -6.04398,-4.599699 -0.42348,-2.136931 -0.42348,-6.197899 0,-4.388805 0.71214,-6.928534 0.21189,-0.789106 0.78911,-0.789106 0.88535,0 2.69465,0.0191 1.80909,0.0191 2.69465,0.0191 0.5967,0 0.5967,0.50045 0,0.134733 -0.0388,0.404198 -0.4042,2.61769 -0.4042,5.312342 0,3.349325 0.2119,4.580709 0.34642,2.116941 2.52174,2.116941 0.84687,0 1.82808,-0.750625 1.0005,-0.750624 1.03948,-1.55922 0.0388,-0.712144 0.0388,-9.662166 0,-0.635183 0.0964,-0.750625 0.11565,-0.192503 0.69286,-0.192503 0.94312,0 2.82958,0.0191 1.90505,0.0191 2.84858,0.0191 0.57741,0 0.67366,0.288756 0.0382,0.154023 0.0382,0.461969 z"
     id="path7"
     style="fill:#0ea5e9;stroke:#292524;stroke-width:0.5997" />
  <path
     d="m 238.75736,45.03436 q 0,0.51964 -0.53893,0.596702 -0.53893,0.07697 -2.80959,0.07697 -2.42479,0 -3.0025,-0.115542 -0.57741,-0.115542 -0.57741,-0.789105 0,-0.904648 0.0577,-2.732633 0.0577,-1.828086 0.0577,-2.752623 0,-0.712144 -0.0388,-2.116941 -0.0382,-1.424288 -0.0382,-2.136931 0,-2.636681 -2.29086,-2.636681 -0.75062,0 -1.75112,0.654372 -1.07746,0.731434 -1.07746,1.443278 v 10.3948 q 0,0.635182 -0.5967,0.712144 -0.67367,0.07697 -2.75263,0.07697 -2.25187,0 -2.92553,-0.115542 -0.5967,-0.09624 -0.5967,-0.635182 0,-1.501249 0.0185,-4.522738 0.0186,-3.021488 0.0186,-4.542727 0,-4.792603 -0.75063,-7.525236 -0.0388,-0.173213 -0.0388,-0.288755 0,-0.307946 0.28886,-0.423488 1.21239,-0.134733 3.23338,-0.423488 3.06047,-0.596702 3.44528,-0.596702 0.21189,0 0.32703,1.308346 0.11564,1.289355 0.32714,1.289355 -0.2119,0 2.05897,-1.328336 2.29085,-1.347326 4.003,-1.347326 2.44477,0 4.07996,1.154423 1.82808,1.328335 1.82808,3.695151 v 6.139929 q 0,1.251374 0.0186,3.753122 0.0185,2.482758 0.0185,3.734132 z"
     id="path8"
     style="fill:#0ea5e9;stroke:#292524;stroke-width:0.5997" />
  <path
     d="m 262.34556,18.277745 c 0,-0.282325 -0.0513,0.14113 -0.15392,1.270365 -0.14127,1.42462 -0.25028,3.246708 -0.32704,5.466265 -0.10261,2.514742 -0.15392,5.376311 -0.15392,8.584706 0,5.299349 0.14756,9.070795 0.44268,11.31434 0.0259,0.243811 0.0388,0.397801 0.0388,0.461968 0,0.141196 -0.0963,0.224588 -0.28886,0.250175 -0.4619,0.06416 -2.16205,0.09624 -5.10045,0.09624 -0.69299,0 -1.09079,-0.134733 -1.1934,-0.404198 -0.0259,-0.487623 -0.0515,-0.975379 -0.077,-1.463268 -0.0124,-0.102682 -0.0637,-0.205331 -0.15392,-0.307946 -0.0771,0.03851 -0.17339,0.115502 -0.28886,0.230985 -1.38597,1.359986 -3.11811,2.039979 -5.1964,2.039979 -2.70731,0 -4.8759,-0.949525 -6.50575,-2.848575 -1.55255,-1.809095 -2.32883,-4.092952 -2.32883,-6.851572 0,-2.797267 0.76362,-5.100449 2.29085,-6.909544 1.61653,-1.925037 3.79777,-2.887555 6.54373,-2.887555 1.9377,0 3.44528,0.616025 4.52274,1.848075 0.17964,0.205297 0.30797,0.307946 0.385,0.307946 0.11548,0 0.17322,-0.166816 0.17322,-0.500449 0,-0.988173 -0.0257,-2.463768 -0.077,-4.426786 -0.0513,-1.963018 -0.077,-3.432283 -0.077,-4.407795 0,-0.372147 0.10258,-0.583875 0.30775,-0.635182 0.82092,-0.0385 1.95002,-0.115495 3.38731,-0.230985 2.56605,-0.320773 3.40848,-0.478733 3.40629,-0.481159 0.28233,0 0.42349,0.160386 0.42349,0.481159 z m -7.25637,17.69115 c 0,-1.013493 -0.35282,-1.898717 -1.05847,-2.655672 -0.70565,-0.769615 -1.55889,-1.154422 -2.55972,-1.154422 -1.05214,0 -1.89272,0.384807 -2.52174,1.154422 -0.61596,0.756955 -0.92394,1.667833 -0.92394,2.732634 0,1.03948 0.31438,1.918374 0.94313,2.636681 0.64155,0.769615 1.47546,1.154422 2.50175,1.154422 1.02682,0 1.88639,-0.384807 2.57871,-1.154422 0.69299,-0.769615 1.03948,-1.674163 1.03948,-2.713643 z"
     id="path9"
     style="fill:#0ea5e9;stroke:#292524;stroke-width:0.5997"
     sodipodi:nodetypes="cccscscsccccscscscsssscccccccscscsccc" />
  <path
     d="m 283.03521,31.3612 q 0,2.270864 0.11564,6.832582 0.11564,4.561718 0.11564,6.832582 0,0.385007 -0.17321,0.481159 -0.0388,0.0191 -0.50045,0.07697 -1.25137,0.154023 -3.34932,0.154023 -2.8096,0 -3.58021,-0.154023 -0.55812,-0.115542 -0.55812,-0.596702 0,0.307946 0.17321,-3.387305 0.34643,-7.795101 0.34643,-10.23488 0,-2.05897 -0.13454,-6.17791 -0.13453,-4.118939 -0.13453,-6.177909 0,-0.423488 0.44268,-0.423488 0.5967,0 1.7901,0.05775 1.2124,0.05775 1.8091,0.05775 0.5967,0 1.75112,-0.05775 1.17442,-0.05775 1.77112,-0.05775 0.55822,0 0.55822,0.423488 0,2.05897 -0.23089,6.177909 -0.21189,4.11894 -0.21189,6.17791 z"
     fill="#00b04e"
     id="path10"
     style="stroke:#292524;stroke-width:0.5997;fill:#10b981" />
  <path
     d="m 299.72686,39.946905 q 0,0.577411 -0.15392,1.751124 -0.13454,1.174412 -0.13454,1.732134 0,0.53893 -0.11564,0.692953 -0.11564,0.154023 -0.63508,0.442678 -2.48276,1.366317 -5.50425,1.366317 -5.56221,0 -5.56221,-4.253872 0,-1.270365 0.0962,-3.811094 0.0964,-2.559719 0.0964,-3.830084 0,-0.846876 -0.98161,-0.846876 -0.077,0 -0.25017,0 -0.17322,0.0191 -0.25018,0.0191 -0.73143,0 -0.73143,-0.51964 0,-0.307946 0.0388,-0.943128 0.0577,-0.635182 0.0577,-0.943128 0,-0.404198 -0.0577,-1.231384 -0.0388,-0.827586 -0.0388,-1.231384 0,-0.385007 1.23138,-0.423488 0.69285,-0.0191 0.75063,-0.385008 0.11564,-0.731434 0.077,-2.309844 -0.077,-2.482758 -0.077,-2.367816 0,-2.232883 0.42348,-2.232883 0.51974,0 1.48226,0.230985 1.09745,0.250175 1.52024,0.288755 0.98161,0.134733 2.96452,0.365718 0.48116,0.03877 0.48116,0.327236 0,0.769915 -0.13453,2.328835 -0.11565,1.55922 -0.11565,2.347825 0,0.943129 0.55812,0.943129 0.67367,0 2.03998,-0.05775 1.36632,-0.05775 2.05897,-0.05775 0.42349,0 0.42349,0.288756 0,0.442678 -0.0963,1.328335 -0.0962,0.885357 -0.0962,1.328336 0,0.461969 0.0186,1.347326 0.0185,0.885357 0.0185,1.347326 0,0.404198 -0.55812,0.404198 -0.38501,0 -1.28936,-0.0191 -0.90454,-0.03877 -1.28935,-0.03877 h -1.44328 q -0.28886,0 -0.28886,0.846876 0,0.461969 0,1.366316 0.0186,0.923838 0.0186,1.366317 0,1.617191 0.36581,2.232883 0.51974,0.827586 2.03998,0.827586 0.48116,0 1.36632,-0.211794 0.90465,-0.230985 1.27036,-0.230985 0.4042,0 0.4042,0.423489 z"
     fill="#00b04e"
     id="path11"
     style="stroke:#292524;stroke-width:0.5997;fill:#10b981" />
  <path
     d="m 9.2051935,19.737015 c -0.4525736,0.452574 -1.987006,2.047976 -2.81859,2.9995 -0.8467764,0.935931 -1.493253,1.629185 -1.9460265,2.081958 -0.3977011,0.397701 -1.031484,0.985407 -1.89905,1.763118 -0.8537729,0.764418 -1.487256,1.352324 -1.89905,1.763118 -0.4113942,0.411394 -0.45207385,0.783808 -0.1231384,1.112444 1.7341325,1.734132 4.3828075,4.283857 7.9470245,7.65517 2.2998499,2.175912 4.0769609,3.883058 5.6151909,5.376311 -0.890155,3.059469 -5.1514229,2.182908 -6.7916024,3.823087 -1.7221385,1.722139 -2.2438775,5.155421 0.1622188,7.524236 2.406796,2.368815 5.5402286,1.784107 7.2223866,0.102649 1.681159,-1.681159 0.848376,-6.008994 3.687156,-7.045476 0.0382,-0.01404 0.07849,-0.02528 0.117041,-0.03483 2.03898,2.059969 4.666666,4.729634 7.027485,7.171412 3.202398,3.284357 3.755121,3.87906 5.385306,5.508245 0.388705,0.388705 0.816791,0.421489 1.289355,0.09854 1.227386,-1.076461 2.142928,-1.932033 2.744627,-2.563717 l 6.240878,-6.059969 c 0.424687,-0.403998 1.914042,-1.825087 3.239379,-3.087455 2.420789,1.212393 1.749125,5.046475 3.284357,6.581707 1.722139,1.722139 5.15742,2.241879 7.526235,-0.164218 2.368815,-2.406796 1.784108,-5.540228 0.102649,-7.222387 -1.567216,-1.567216 -5.430283,-0.950224 -6.789603,-3.155421 0.620389,-0.611594 1.962018,-1.58021 1.747126,-2.383808 -0.447377,-1.670164 -2.786606,-3.828085 -4.604697,-5.652172 -0.343828,-0.343828 -0.703448,-0.331234 -1.073463,0.03876 -1.234382,1.234382 -1.7991,1.952023 -4.11794,4.569714 -2.319839,2.589704 -3.204397,3.606196 -4.438779,4.840578 l -0.535832,0.535832 c -0.236782,0.147026 -0.451275,0.136632 -0.644678,-0.02866 -0.193303,-0.165517 -0.385507,-0.331434 -0.57901,-0.496751 -0.895852,-0.868066 -4.165916,-4.123937 -6.078959,-6.03798 L 22.30514,33.411524 C 16.874857,27.570446 12.836877,23.166649 10.1912,20.188139 L 9.9203357,19.875995 C 9.6497711,19.578544 9.4116902,19.530668 9.2058931,19.736365 Z"
     fill="#fcbd14"
     id="path12"
     style="stroke:#292524;stroke-width:0.5997;fill:#eab308" />
  <path
     d="m 6.1067435,5.4591575 c -2.27886,2.3638175 -1.749125,5.7201385 -0.053373,7.4152905 1.6241875,1.624187 5.8220875,0.77931 6.7666145,3.736131 -0.35902,0.350325 -0.688056,0.675362 -0.961019,0.948226 -0.386607,0.386606 -0.390105,0.756221 -0.01012,1.110444 4.428785,5.232383 22.818585,23.378305 23.28835,23.84807 0.469065,0.469065 3.615192,-3.53723 4.514742,-4.43678 0.900049,-0.90005 3.997,-3.863068 3.454272,-4.353822 -0.543129,-0.490455 -4.01899,-3.522238 -5.187405,-4.590704 -0.510945,-0.467366 -0.512444,-1.145427 0.0062,-1.89905 0.09714,-0.127336 0.582509,-0.627786 1.455272,-1.501249 2.706646,-2.706646 4.951523,-4.508744 6.283857,-5.841078 2.179909,-2.323837 1.09845,-2.532733 -1.848076,-5.625186 -2.584707,-2.584707 -3.07746,-2.720639 -3.489254,-2.308845 -0.86057,0.86057 -2.091954,2.209895 -3.695152,4.047975 -1.606196,1.811094 -2.490754,2.7986 -3.351323,3.65917 -0.511344,0.511344 -1.394303,1.31934 -1.717141,1.495252 -0.789605,0.407696 -2.150924,-0.30095 -3.546226,-1.696152 -1.16042,-1.160419 -1.634183,-2.094952 -1.422289,-2.806596 1.517241,-2.23888 3.7991,-3.761118 5.006496,-4.743627 2.09895,-1.717141 3.348325,-2.9245369 4.065966,-4.0689644 C 36.384977,6.7032351 36.096121,5.7796971 35.224857,5.0600571 34.162389,4.2720513 33.458741,3.7277236 33.109915,3.4298726 31.797572,2.2164796 30.824059,1.2959401 30.192375,0.66425615 29.515413,0.1370199 28.866038,0.1843962 28.24235,0.80798425 24.942001,5.0808467 20.790078,8.9349187 17.26784,12.332219 17.221773,12.322104 17.173847,12.308061 17.12821,12.29121 14.28963,11.254728 15.122214,6.9268933 13.441055,5.2457343 11.759896,3.5645753 8.6254635,2.9798678 6.2186675,5.3483829 6.1810263,5.3854644 6.1440049,5.4216962 6.107823,5.4592275 Z"
     fill="#01b3f6"
     id="path13"
     style="stroke:#292524;stroke-width:0.5997;fill:#0ea5e9" />
  <path
     d="m 59.756905,31.3612 c 0.287956,0.287956 0.27946,0.63928 -0.02528,1.054473 -0.407097,0.571614 -1.467266,1.714142 -3.17941,3.426286 -1.727136,1.727136 -2.639679,2.55772 -3.211393,2.964517 -0.371515,0.261769 -0.654973,0.367016 -0.850375,0.315542 -0.0836,-0.02641 -0.303748,-0.217392 -0.66027,-0.573913 -5.466265,-5.493252 -3.630184,-4.443777 -10.364815,-9.672162 -0.247976,-0.190804 -0.406596,-0.32014 -0.475162,-0.388805 -0.274263,-0.274263 -0.217091,-0.605697 0.171514,-0.994403 0.402999,-0.403098 0.81929,-0.736931 1.722139,-1.475262 0.917141,-0.752523 1.584207,-1.337331 2.001998,-1.755122 0.417391,-0.417391 1.009495,-1.077461 1.775112,-1.981009 0.766217,-0.903348 1.358321,-1.564217 1.775112,-1.981009 0.345427,-0.345427 0.655272,-0.381009 0.929535,-0.106746 0.05506,0.05506 0.172814,0.197401 0.347526,0.434182 3.123438,4.514742 6.031983,6.722637 10.044975,10.73463 z"
     fill="#00b04e"
     id="path14"
     style="stroke:#292524;stroke-width:0.5997;fill:#10b981" />
</svg>
