<svg version="1.1" viewBox="0 0 1978 1351" xmlns="http://www.w3.org/2000/svg" xmlns:xlink="http://www.w3.org/1999/xlink">
  <defs>
    <linearGradient id="linearGradient120" x1="523.6" x2="523.6" y1="-4.819" y2="1001" gradientTransform="matrix(1.978 0 0 1.351 2.09e-6 4.508e-6)" gradientUnits="userSpaceOnUse">
      <stop stop-color="#10b981" offset="0"/>
      <stop stop-color="#047857" offset="1"/>
    </linearGradient>
  </defs>
  <rect width="1978" height="1351" fill="url(#linearGradient120)" stroke-width="1.635"/>
  <g transform="matrix(1.078 0 0 1.078 25.39 -15.69)">
    <g id="g235" transform="matrix(1.118 0 0 1.118 622.7 -417.2)" fill="#fff" fill-opacity=".15">
      <path d="m-493.6 459.9c-0.4526 0.4526-1.987 2.048-2.819 3-0.8468 0.9359-1.493 1.629-1.946 2.082-0.3977 0.3977-1.031 0.9854-1.899 1.763-0.8538 0.7644-1.487 1.352-1.899 1.763-0.4114 0.4114-0.4521 0.7838-0.1231 1.112 1.734 1.734 4.383 4.284 7.947 7.655 2.3 2.176 4.077 3.883 5.615 5.376-0.8902 3.059-5.151 2.183-6.792 3.823-1.722 1.722-2.244 5.155 0.1622 7.524 2.407 2.369 5.54 1.784 7.222 0.1026 1.681-1.681 0.8484-6.009 3.687-7.045 0.0382-0.014 0.0785-0.0253 0.117-0.0348 2.039 2.06 4.667 4.73 7.027 7.171 3.202 3.284 3.755 3.879 5.385 5.508 0.3887 0.3887 0.8168 0.4215 1.289 0.0985 1.227-1.076 2.143-1.932 2.745-2.564l6.241-6.06c0.4247-0.404 1.914-1.825 3.239-3.087 2.421 1.212 1.749 5.046 3.284 6.582 1.722 1.722 5.157 2.242 7.526-0.1642 2.369-2.407 1.784-5.54 0.1026-7.222-1.567-1.567-5.43-0.9502-6.79-3.155 0.6204-0.6116 1.962-1.58 1.747-2.384-0.4474-1.67-2.787-3.828-4.605-5.652-0.3438-0.3438-0.7034-0.3312-1.073 0.0388-1.234 1.234-1.799 1.952-4.118 4.57-2.32 2.59-3.204 3.606-4.439 4.841l-0.5358 0.5358c-0.2368 0.147-0.4513 0.1366-0.6447-0.0287-0.1933-0.1655-0.3855-0.3314-0.579-0.4968-0.8959-0.8681-4.166-4.124-6.079-6.038l-5.898-5.939c-5.43-5.841-9.468-10.24-12.11-13.22l-0.2709-0.3121c-0.2706-0.2975-0.5086-0.3453-0.7144-0.1396z"/>
      <path d="m-496.7 445.6c-2.279 2.364-1.749 5.72-0.0534 7.415 1.624 1.624 5.822 0.7793 6.767 3.736-0.359 0.3503-0.6881 0.6754-0.961 0.9482-0.3866 0.3866-0.3901 0.7562-0.0101 1.11 4.429 5.232 22.82 23.38 23.29 23.85 0.4691 0.4691 3.615-3.537 4.515-4.437s3.997-3.863 3.454-4.354c-0.5431-0.4905-4.019-3.522-5.187-4.591-0.5109-0.4674-0.5124-1.145 6e-3 -1.899 0.0971-0.1273 0.5825-0.6278 1.455-1.501 2.707-2.707 4.952-4.509 6.284-5.841 2.18-2.324 1.098-2.533-1.848-5.625-2.585-2.585-3.077-2.721-3.489-2.309-0.8606 0.8606-2.092 2.21-3.695 4.048-1.606 1.811-2.491 2.799-3.351 3.659-0.5113 0.5113-1.394 1.319-1.717 1.495-0.7896 0.4077-2.151-0.301-3.546-1.696-1.16-1.16-1.634-2.095-1.422-2.807 1.517-2.239 3.799-3.761 5.006-4.744 2.099-1.717 3.348-2.925 4.066-4.069 0.7178-1.144 0.429-2.068-0.4423-2.788-1.062-0.788-1.766-1.332-2.115-1.63-1.312-1.213-2.286-2.134-2.918-2.766-0.677-0.5272-1.326-0.4799-1.95 0.1437-3.3 4.273-7.452 8.127-10.97 11.52-0.0461-0.0101-0.094-0.0242-0.1396-0.041-2.839-1.036-2.006-5.364-3.687-7.045s-4.816-2.266-7.222 0.1026c-0.0376 0.0371-0.0747 0.0733-0.1108 0.1108z"/>
      <path d="m-443.1 471.5c0.288 0.288 0.2795 0.6393-0.0253 1.054-0.4071 0.5716-1.467 1.714-3.179 3.426-1.727 1.727-2.64 2.558-3.211 2.965-0.3715 0.2618-0.655 0.367-0.8504 0.3155-0.0836-0.0264-0.3037-0.2174-0.6603-0.5739-5.466-5.493-3.63-4.444-10.36-9.672-0.248-0.1908-0.4066-0.3201-0.4752-0.3888-0.2743-0.2743-0.2171-0.6057 0.1715-0.9944 0.403-0.4031 0.8193-0.7369 1.722-1.475 0.9171-0.7525 1.584-1.337 2.002-1.755 0.4174-0.4174 1.009-1.077 1.775-1.981 0.7662-0.9033 1.358-1.564 1.775-1.981 0.3454-0.3454 0.6553-0.381 0.9295-0.1067 0.0551 0.0551 0.1728 0.1974 0.3475 0.4342 3.123 4.515 6.032 6.723 10.04 10.73z"/>
    </g>
    <use transform="translate(99.98 133.2)" xlink:href="#g235"/>
    <use transform="translate(0 266.4)" xlink:href="#g235"/>
    <use transform="translate(99.98 399.6)" xlink:href="#g235"/>
    <use transform="translate(0 532.9)" xlink:href="#g235"/>
    <use transform="translate(99.98 666.1)" xlink:href="#g235"/>
    <use transform="translate(0 799.3)" xlink:href="#g235"/>
    <use transform="translate(99.98 932.5)" xlink:href="#g235"/>
    <use transform="translate(0 1066)" xlink:href="#g235"/>
    <use transform="translate(200)" xlink:href="#g235"/>
    <use transform="translate(299.9 133.2)" xlink:href="#g235"/>
    <use transform="translate(200 266.4)" xlink:href="#g235"/>
    <use transform="translate(299.9 399.6)" xlink:href="#g235"/>
    <use transform="translate(200 532.9)" xlink:href="#g235"/>
    <use transform="translate(299.9 666.1)" xlink:href="#g235"/>
    <use transform="translate(200 799.3)" xlink:href="#g235"/>
    <use transform="translate(299.9 932.5)" xlink:href="#g235"/>
    <use transform="translate(200 1066)" xlink:href="#g235"/>
    <use transform="translate(399.9)" xlink:href="#g235"/>
    <use transform="translate(499.9 133.2)" xlink:href="#g235"/>
    <use transform="translate(399.9 266.4)" xlink:href="#g235"/>
    <use transform="translate(499.9 399.6)" xlink:href="#g235"/>
    <use transform="translate(399.9 532.9)" xlink:href="#g235"/>
    <use transform="translate(499.9 666.1)" xlink:href="#g235"/>
    <use transform="translate(399.9 799.3)" xlink:href="#g235"/>
    <use transform="translate(499.9 932.5)" xlink:href="#g235"/>
    <use transform="translate(399.9 1066)" xlink:href="#g235"/>
    <use transform="translate(599.9)" xlink:href="#g235"/>
    <use transform="translate(699.8 133.2)" xlink:href="#g235"/>
    <use transform="translate(599.9 266.4)" xlink:href="#g235"/>
    <use transform="translate(699.8 399.6)" xlink:href="#g235"/>
    <use transform="translate(599.9 532.9)" xlink:href="#g235"/>
    <use transform="translate(699.8 666.1)" xlink:href="#g235"/>
    <use transform="translate(599.9 799.3)" xlink:href="#g235"/>
    <use transform="translate(699.8 932.5)" xlink:href="#g235"/>
    <use transform="translate(599.9 1066)" xlink:href="#g235"/>
    <use transform="translate(799.8)" xlink:href="#g235"/>
    <use transform="translate(899.8 133.2)" xlink:href="#g235"/>
    <use transform="translate(799.8 266.4)" xlink:href="#g235"/>
    <use transform="translate(899.8 399.6)" xlink:href="#g235"/>
    <use transform="translate(799.8 532.9)" xlink:href="#g235"/>
    <use transform="translate(899.8 666.1)" xlink:href="#g235"/>
    <use transform="translate(799.8 799.3)" xlink:href="#g235"/>
    <use transform="translate(899.8 932.5)" xlink:href="#g235"/>
    <use transform="translate(799.8 1066)" xlink:href="#g235"/>
    <use transform="translate(999.8)" xlink:href="#g235"/>
    <use transform="translate(1100 133.2)" xlink:href="#g235"/>
    <use transform="translate(999.8 266.4)" xlink:href="#g235"/>
    <use transform="translate(1100 399.6)" xlink:href="#g235"/>
    <use transform="translate(999.8 532.9)" xlink:href="#g235"/>
    <use transform="translate(1100 666.1)" xlink:href="#g235"/>
    <use transform="translate(999.8 799.3)" xlink:href="#g235"/>
    <use transform="translate(1100 932.5)" xlink:href="#g235"/>
    <use transform="translate(999.8 1066)" xlink:href="#g235"/>
    <use transform="translate(1200)" xlink:href="#g235"/>
    <use transform="translate(1300 133.2)" xlink:href="#g235"/>
    <use transform="translate(1200 266.4)" xlink:href="#g235"/>
    <use transform="translate(1300 399.6)" xlink:href="#g235"/>
    <use transform="translate(1200 532.9)" xlink:href="#g235"/>
    <use transform="translate(1300 666.1)" xlink:href="#g235"/>
    <use transform="translate(1200 799.3)" xlink:href="#g235"/>
    <use transform="translate(1300 932.5)" xlink:href="#g235"/>
    <use transform="translate(1200 1066)" xlink:href="#g235"/>
    <use transform="translate(1400)" xlink:href="#g235"/>
    <use transform="translate(1500 133.2)" xlink:href="#g235"/>
    <use transform="translate(1400 266.4)" xlink:href="#g235"/>
    <use transform="translate(1500 399.6)" xlink:href="#g235"/>
    <use transform="translate(1400 532.9)" xlink:href="#g235"/>
    <use transform="translate(1500 666.1)" xlink:href="#g235"/>
    <use transform="translate(1400 799.3)" xlink:href="#g235"/>
    <use transform="translate(1500 932.5)" xlink:href="#g235"/>
    <use transform="translate(1400 1066)" xlink:href="#g235"/>
    <use transform="translate(1600)" xlink:href="#g235"/>
    <use transform="translate(1600 266.4)" xlink:href="#g235"/>
    <use transform="translate(1600 532.9)" xlink:href="#g235"/>
    <use transform="translate(1600 799.3)" xlink:href="#g235"/>
    <use transform="translate(1600 1066)" xlink:href="#g235"/>
  </g>
</svg>
