<?xml version="1.0" encoding="UTF-8" standalone="no"?>
<svg
   version="1.1"
   viewBox="0 0 880 688.00001"
   id="svg14"
   sodipodi:docname="lfi-screenshot.svg"
   inkscape:version="1.3.2 (091e20e, 2023-11-25)"
   width="880"
   height="688"
   inkscape:export-filename="screenshot.png"
   inkscape:export-xdpi="96"
   inkscape:export-ydpi="96"
   xmlns:inkscape="http://www.inkscape.org/namespaces/inkscape"
   xmlns:sodipodi="http://sodipodi.sourceforge.net/DTD/sodipodi-0.dtd"
   xmlns="http://www.w3.org/2000/svg"
   xmlns:svg="http://www.w3.org/2000/svg"
   xmlns:rdf="http://www.w3.org/1999/02/22-rdf-syntax-ns#"
   xmlns:cc="http://creativecommons.org/ns#"
   xmlns:dc="http://purl.org/dc/elements/1.1/">
  <defs
     id="defs14" />
  <sodipodi:namedview
     id="namedview14"
     pagecolor="#505050"
     bordercolor="#eeeeee"
     borderopacity="1"
     inkscape:showpageshadow="0"
     inkscape:pageopacity="0"
     inkscape:pagecheckerboard="0"
     inkscape:deskcolor="#505050"
     inkscape:zoom="0.70710678"
     inkscape:cx="499.21739"
     inkscape:cy="374.05949"
     inkscape:window-width="1920"
     inkscape:window-height="1011"
     inkscape:window-x="0"
     inkscape:window-y="0"
     inkscape:window-maximized="1"
     inkscape:current-layer="svg14" />
  <title
     id="title1">Let's Fund It</title>
  <rect
     style="fill:#ffffff;stroke:none;stroke-width:6.23802"
     id="rect14"
     width="880"
     height="688"
     x="0"
     y="0" />
  <g
     id="g14"
     transform="matrix(7.4458941,0,0,7.4458941,215.63067,120.03512)"
     style="stroke:none">
    <path
       d="m 9.2051935,19.737015 c -0.4525736,0.452574 -1.987006,2.047976 -2.81859,2.9995 -0.8467764,0.935931 -1.493253,1.629185 -1.9460265,2.081958 -0.3977011,0.397701 -1.031484,0.985407 -1.89905,1.763118 -0.8537729,0.764418 -1.487256,1.352324 -1.89905,1.763118 -0.4113942,0.411394 -0.45207385,0.783808 -0.1231384,1.112444 1.7341325,1.734132 4.3828075,4.283857 7.9470245,7.65517 2.2998499,2.175912 4.0769609,3.883058 5.6151909,5.376311 -0.890155,3.059469 -5.1514229,2.182908 -6.7916024,3.823087 -1.7221385,1.722139 -2.2438775,5.155421 0.1622188,7.524236 2.406796,2.368815 5.5402286,1.784107 7.2223866,0.102649 1.681159,-1.681159 0.848376,-6.008994 3.687156,-7.045476 0.0382,-0.01404 0.07849,-0.02528 0.117041,-0.03483 2.03898,2.059969 4.666666,4.729634 7.027485,7.171412 3.202398,3.284357 3.755121,3.87906 5.385306,5.508245 0.388705,0.388705 0.816791,0.421489 1.289355,0.09854 1.227386,-1.076461 2.142928,-1.932033 2.744627,-2.563717 l 6.240878,-6.059969 c 0.424687,-0.403998 1.914042,-1.825087 3.239379,-3.087455 2.420789,1.212393 1.749125,5.046475 3.284357,6.581707 1.722139,1.722139 5.15742,2.241879 7.526235,-0.164218 2.368815,-2.406796 1.784108,-5.540228 0.102649,-7.222387 -1.567216,-1.567216 -5.430283,-0.950224 -6.789603,-3.155421 0.620389,-0.611594 1.962018,-1.58021 1.747126,-2.383808 -0.447377,-1.670164 -2.786606,-3.828085 -4.604697,-5.652172 -0.343828,-0.343828 -0.703448,-0.331234 -1.073463,0.03876 -1.234382,1.234382 -1.7991,1.952023 -4.11794,4.569714 -2.319839,2.589704 -3.204397,3.606196 -4.438779,4.840578 l -0.535832,0.535832 c -0.236782,0.147026 -0.451275,0.136632 -0.644678,-0.02866 -0.193303,-0.165517 -0.385507,-0.331434 -0.57901,-0.496751 -0.895852,-0.868066 -4.165916,-4.123937 -6.078959,-6.03798 L 22.30514,33.411524 C 16.874857,27.570446 12.836877,23.166649 10.1912,20.188139 L 9.9203357,19.875995 C 9.6497711,19.578544 9.4116902,19.530668 9.2058931,19.736365 Z"
       fill="#fcbd14"
       id="path12"
       style="fill:#eab308;stroke:none;stroke-width:0.5997" />
    <path
       d="m 6.1067435,5.4591575 c -2.27886,2.3638175 -1.749125,5.7201385 -0.053373,7.4152905 1.6241875,1.624187 5.8220875,0.77931 6.7666145,3.736131 -0.35902,0.350325 -0.688056,0.675362 -0.961019,0.948226 -0.386607,0.386606 -0.390105,0.756221 -0.01012,1.110444 4.428785,5.232383 22.818585,23.378305 23.28835,23.84807 0.469065,0.469065 3.615192,-3.53723 4.514742,-4.43678 0.900049,-0.90005 3.997,-3.863068 3.454272,-4.353822 -0.543129,-0.490455 -4.01899,-3.522238 -5.187405,-4.590704 -0.510945,-0.467366 -0.512444,-1.145427 0.0062,-1.89905 0.09714,-0.127336 0.582509,-0.627786 1.455272,-1.501249 2.706646,-2.706646 4.951523,-4.508744 6.283857,-5.841078 2.179909,-2.323837 1.09845,-2.532733 -1.848076,-5.625186 -2.584707,-2.584707 -3.07746,-2.720639 -3.489254,-2.308845 -0.86057,0.86057 -2.091954,2.209895 -3.695152,4.047975 -1.606196,1.811094 -2.490754,2.7986 -3.351323,3.65917 -0.511344,0.511344 -1.394303,1.31934 -1.717141,1.495252 -0.789605,0.407696 -2.150924,-0.30095 -3.546226,-1.696152 -1.16042,-1.160419 -1.634183,-2.094952 -1.422289,-2.806596 1.517241,-2.23888 3.7991,-3.761118 5.006496,-4.743627 2.09895,-1.717141 3.348325,-2.9245369 4.065966,-4.0689644 C 36.384977,6.7032351 36.096121,5.7796971 35.224857,5.0600571 34.162389,4.2720513 33.458741,3.7277236 33.109915,3.4298726 31.797572,2.2164796 30.824059,1.2959401 30.192375,0.66425615 29.515413,0.1370199 28.866038,0.1843962 28.24235,0.80798425 24.942001,5.0808467 20.790078,8.9349187 17.26784,12.332219 17.221773,12.322104 17.173847,12.308061 17.12821,12.29121 14.28963,11.254728 15.122214,6.9268933 13.441055,5.2457343 11.759896,3.5645753 8.6254635,2.9798678 6.2186675,5.3483829 6.1810263,5.3854644 6.1440049,5.4216962 6.107823,5.4592275 Z"
       fill="#01b3f6"
       id="path13"
       style="fill:#0ea5e9;stroke:none;stroke-width:0.5997" />
    <path
       d="m 59.756905,31.3612 c 0.287956,0.287956 0.27946,0.63928 -0.02528,1.054473 -0.407097,0.571614 -1.467266,1.714142 -3.17941,3.426286 -1.727136,1.727136 -2.639679,2.55772 -3.211393,2.964517 -0.371515,0.261769 -0.654973,0.367016 -0.850375,0.315542 -0.0836,-0.02641 -0.303748,-0.217392 -0.66027,-0.573913 -5.466265,-5.493252 -3.630184,-4.443777 -10.364815,-9.672162 -0.247976,-0.190804 -0.406596,-0.32014 -0.475162,-0.388805 -0.274263,-0.274263 -0.217091,-0.605697 0.171514,-0.994403 0.402999,-0.403098 0.81929,-0.736931 1.722139,-1.475262 0.917141,-0.752523 1.584207,-1.337331 2.001998,-1.755122 0.417391,-0.417391 1.009495,-1.077461 1.775112,-1.981009 0.766217,-0.903348 1.358321,-1.564217 1.775112,-1.981009 0.345427,-0.345427 0.655272,-0.381009 0.929535,-0.106746 0.05506,0.05506 0.172814,0.197401 0.347526,0.434182 3.123438,4.514742 6.031983,6.722637 10.044975,10.73463 z"
       fill="#00b04e"
       id="path14"
       style="fill:#10b981;stroke:none;stroke-width:0.5997" />
  </g>
  <metadata
     id="metadata14">
    <rdf:RDF>
      <cc:Work
         rdf:about="">
        <dc:title>Let's Fund It</dc:title>
      </cc:Work>
    </rdf:RDF>
  </metadata>
</svg>
