<?xml version="1.0" encoding="UTF-8"?>
<svg width="334.71" height="145.3" version="1.1" viewBox="0 0 88.559636 38.444889" xmlns="http://www.w3.org/2000/svg" xmlns:cc="http://creativecommons.org/ns#" xmlns:dc="http://purl.org/dc/elements/1.1/" xmlns:rdf="http://www.w3.org/1999/02/22-rdf-syntax-ns#">
	<metadata>
		<rdf:RDF>
			<cc:Work rdf:about="">
				<dc:format>image/svg+xml</dc:format>
				<dc:type rdf:resource="http://purl.org/dc/dcmitype/StillImage"/>
				<dc:title/>
			</cc:Work>
		</rdf:RDF>
	</metadata>
	<g transform="translate(390.67 -20.011)">
		<rect x="-390.67" y="20.011" width="88.56" height="38.445" rx="0" ry="0" fill="#333"/>
		<text x="-358.34485" y="37.332973" fill="#ffffff" font-family="'Open Sans'" font-size="9.6032px" letter-spacing=".52917px" stroke-width=".24008px" text-align="center" text-anchor="middle" word-spacing=".3175px" style="line-height:110.00000238%" xml:space="preserve"><tspan x="-356.40964" y="37.332973" text-align="center" style="line-height:110.00000238%">VIEW MY </tspan><tspan x="-358.08026" y="47.896545" text-align="center" style="line-height:110.00000238%">GALLERY</tspan></text>
		<g transform="translate(0 .54796)" fill="#fff">
			<path d="m-323.57 29.154a9.5319 9.5319 0 0 0 -9.5319 9.5319 9.5319 9.5319 0 0 0 9.5319 9.5318 9.5319 9.5319 0 0 0 0.7114 -0.02834c0.15158-0.07799 0.28045-0.17501 0.41832-0.31287 0.36557-0.36558 0.524-0.84111 0.45706-1.3717-0.0308-0.24395-0.12354-0.46473-0.27937-0.66488-0.49436-0.63494-0.63225-1.0818-0.49573-1.606 0.14528-0.55775 0.62123-1.0406 1.1579-1.1746 0.12862-0.03214 0.53198-0.04805 1.5247-0.06003 1.1944-0.01442 1.3917-0.02402 1.7149-0.08358 0.44972-0.0829 0.55607-0.10939 0.8575-0.21338 1.7837-0.61536 3.0263-2.0252 3.4535-3.784a9.5319 9.5319 0 0 0 0.0117 -0.23246 9.5319 9.5319 0 0 0 -9.5318 -9.5319zm-2.6705 2.0107c0.12184 7.41e-4 0.2453 0.01643 0.36841 0.0485 0.26765 0.06972 0.50914 0.21746 0.74727 0.45727 0.63353 0.63801 0.6276 1.5904-0.0138 2.2253-0.20977 0.20764-0.40695 0.32727-0.68079 0.41294-0.54568 0.17072-1.1331 0.0144-1.5636-0.41612-0.32944-0.32945-0.47799-0.67264-0.47934-1.1086-3e-3 -0.90218 0.76898-1.6246 1.6219-1.6193zm5.3238 0.0018c0.53672-0.01 1.0712 0.26508 1.3929 0.76795 0.32317 0.50519 0.3352 1.1191 0.0322 1.6363-0.18944 0.32326-0.59922 0.64193-0.96532 0.75065-0.0958 0.02847-0.28216 0.05041-0.42646 0.0497-0.72005-0.0023-1.3607-0.50583-1.5471-1.216-0.10016-0.38146-0.0615-0.7232 0.12434-1.1015 0.10599-0.21578 0.44057-0.55794 0.67611-0.69152 0.22513-0.12768 0.46952-0.19106 0.71348-0.19559zm-8.5647 4.311c0.57777 0.0021 1.1008 0.3224 1.4094 0.86336 0.24411 0.42792 0.24655 0.99179 6e-3 1.4661-0.16732 0.33041-0.57018 0.66972-0.95002 0.80015-0.19243 0.06607-0.58349 0.0919-0.77631 0.05128-0.58925-0.12415-1.1649-0.69726-1.2717-1.266-0.0996-0.53062 0.0589-1.0422 0.44147-1.4248 0.34-0.34002 0.6932-0.49184 1.1408-0.49017zm11.824 0c0.44762-0.0016 0.80091 0.15015 1.1409 0.49017 0.38257 0.38256 0.5411 0.89416 0.44146 1.4248-0.10947 0.58304-0.693 1.1522-1.2982 1.2663-0.37291 0.07028-0.7231 0.0028-1.0851-0.20951-0.21325-0.12498-0.50977-0.43462-0.6149-0.64223-0.24019-0.47433-0.23775-1.0382 6e-3 -1.4661 0.30859-0.54095 0.8316-0.86121 1.4094-0.86336z" stroke-width=".031758"/>
			<path d="m-327.03 41.41c0.66324 0.47204 1.5454 0.87572 2.2694 1.0385 1.1923 0.26803 2.2013 0.1277 3.1565-0.43909 0.42639-0.253 0.88864-0.64941 1.213-1.0403l0.13741-0.16558-0.68547-1.187-0.68547-1.187-0.20939 0.0042c-0.70475 0.01437-1.2658 0.15315-1.7515 0.43331-0.54616 0.315-0.80221 0.6418-1.0251 1.3084-0.1412 0.42242-0.24427 0.61688-0.44007 0.83063-0.27291 0.29797-0.72469 0.4768-1.1939 0.4726-0.23088-2e-3 -0.6581-0.06944-0.78962-0.12452-0.0531-0.02223-0.0977-0.03575-0.0992-0.03021-1e-3 0.0054 0.045 0.04426 0.10345 0.08587zm6.6773-2.1271c0.36888 0.63873 0.68181 1.1643 0.69543 1.168 0.0256 0.0068 4.4544-2.5701 6.4638-3.761 1.3509-0.80062 2.3823-1.431 2.6147-1.5981l0.16887-0.12141 0.0597-0.2269c0.049-0.18551 0.0558-0.24988 0.039-0.35288-0.0392-0.23971-0.18355-0.41892-0.43247-0.53647l-0.13134-0.062-0.21086 0.06477c-0.76828 0.23601-3.2701 1.2792-6.5787 2.7432-0.36078 0.15964-0.90809 0.40177-1.2162 0.53807-1.2436 0.55007-2.1346 0.95333-2.1385 0.96795-2e-3 0.0085 0.29765 0.53805 0.66652 1.1768z" stroke="#333" stroke-width=".42108"/>
		</g>
	</g>
</svg>
