<?xml version="1.0" encoding="UTF-8"?>
<svg width="70" height="81.783" version="1.1" viewBox="0 0 18.520837 21.638384" xmlns="http://www.w3.org/2000/svg" xmlns:cc="http://creativecommons.org/ns#" xmlns:dc="http://purl.org/dc/elements/1.1/" xmlns:rdf="http://www.w3.org/1999/02/22-rdf-syntax-ns#">
	<metadata>
		<rdf:RDF>
			<cc:Work rdf:about="">
				<dc:format>image/svg+xml</dc:format>
				<dc:type rdf:resource="http://purl.org/dc/dcmitype/StillImage"/>
				<dc:title/>
			</cc:Work>
		</rdf:RDF>
	</metadata>
	<g transform="translate(-97.747 -97.299)">
		<path d="m97.862 105.04c0.68098 0.60497-0.08863-0.67261 0.67276-0.13342 0.4273 0.31837 1.3118 0.40866 0.81921-0.33532 0.53435 0.13552 0.40836 1.2273 0.97544 0.75829 0.61422 0.51058 0.63603 1.3782 1.1863 1.4459 0.27971 0.27641-0.64317-0.32113-0.0995 0.35463 0.11088 0.67824 0.48853-0.11957 0.51144 0.70677 0.50621 0.5429 0.61167 1.0991 1.0264 1.5283 0.0683 0.4385 0.50315 0.89773 0.92791 1.2371 0.22567-0.8418-0.1064-1.848 0.21969-2.639 0.1614 1.0078-0.14426 2.1509 0.16926 3.0814 0.12922-1.6524-0.0326-3.3229-0.0442-4.9816-0.0196 0.89085-0.0392 1.7817-0.0589 2.6726-0.0312-1.1468-0.0413 0.6003-0.0855-0.54499-0.0307 1.1204-0.0315-0.65484-0.0542 0.46567 0.051-1.1685-0.0878 0.52545 0.13412-0.62227 0.38492-0.0822 0.16901-1.3382 0.11004-0.46706-0.24056 0.51501-0.0939-1.1233-0.0237-1.3959 0.18169-0.50496-0.0126-1.0493 0.24086-1.1552 0.014-0.39148-0.0763-1.6235 0.13482-1.034-0.098-0.53542 0.31955-1.06-0.0717-1.0625 0.25816-0.30762 0.0721-0.79769 0.33075-0.73521-0.0564-0.70545 0.25336-1.7319 0.50152-1.3911-0.0554-0.63521 0.48563-1.7136 0.74609-1.8373 0.2123 0.82959 0.38371-0.63199 0.87699-0.81748 0.0648-0.50858 0.52651-0.85267 0.39473 0.0126 0.13468 0.31598 0.18867 1.4401 0.33127 0.51054 0.10248-0.51355 0.21356 1.0002 0.20024 1.2878 0.25492 1.0688 0.11662-0.8387 0.43482-0.22892 0.60183 0.3139 0.14938 1.9074 0.29319 2.708-0.0165 1.6451 0.13524 3.2838 0.18895 4.9235-0.0183 1.4547-7e-3 0.0175-0.12446 1.4682-0.0539-1.5103-0.056-0.13552 0.0479-1.6439 0.7551-0.049-0.0841-1.3215 0.10584-0.76148 0.10823 1.105 0.0302 2.0874-0.0847 3.2065 0.0497 0.69416-0.2658 1.9179 0.11971 2.2828 0.23423-0.71843 1.1359-1.2082 1.5305-2.0349 0.74712-1.0118 1.4674-2.0671 2.4016-2.9174 0.63314-0.41576 1.149-1.0236 1.8839-1.2938-0.2322 0.24171-0.5332 0.5374 0.0269 0.40398-0.0293 0.46749 0.33805 0.57744 0.63097 0.21864-0.49246 0.71945 0.371 1.3172 0.75676 1.6943 0.43952-0.0126-0.97187 1.4291 8.4e-4 0.62718 0.45707-0.19553-0.55066 0.82517-0.31609 1.1824-0.0914 0.51768-0.6588 0.73344-0.16947 0.061-0.0981-0.59636-0.84085 1.0501-1.149 1.3196-1.0464 1.4498-2.1994 2.814-3.3554 4.1759-0.41577 0.51388-0.9464 1.2777-0.94179 0.93909-0.63551 0.4921-0.87702 0.99883-1.4096 0.95307-0.54874 0.35879-0.88535 0.69709-0.42159 1.3324-0.64272 0.0941-0.88673 0.79338-1.4074-0.0189 0.0364 0.78131-0.20825-0.29878-0.72754-0.21066-0.59457-0.16435-1.2242-1.1446-1.442-1.0648 0.3229 0.40194 0.82085 1.105 0.13048 0.37677-0.75326-0.87871-1.7277-1.5519-2.2156-2.5427-0.30002-0.59676-1.3562-1.6911-1.4047-1.7807 0.17742-0.0827-1.0339-1.1156-1.0956-1.5112-0.58598-0.78161-1.1191-1.6236-1.6314-2.4191-0.3441-0.58341-0.85728-1.5061-0.68041-2.2051 0.68802 0.80149-0.51998-1.1554-0.02393-1.3446 8.84e-4 -0.22445-0.29725-0.67032-0.02376-0.80509zm2.6054 1.2512c0.51763 0.34651-0.50102-1.4998-0.23494-0.6399 0.0327 0.22498 0.0893 0.45946 0.23494 0.6399zm1.6493 2.2532c-0.0253-0.49482-0.54443-0.60129 0 0zm1.5567 2.4664c0.84465 0.74214-0.47378-0.71691-0.4586-0.93789-0.31876-0.12124-0.99445-1.58-0.52316-0.52419 0.29644 0.50626 0.60754 1.009 0.98176 1.4621zm0.5312-3.0823c0.0603-0.51205 8e-3 -2.6174-0.0244-1.1159 4e-3 0.16575-0.0384 1.6143 0.0244 1.1159zm0.14743-1.3932c0.10851-0.44502-0.20129-0.22402 0 0zm4.2e-4 0.50362c0.10529-0.56972-0.18151-0.0934 0 0zm0.33731 1.0814c0.0687-1.2954 0.0575 0.30209 0.075-0.99487 0.0463 1.2139-0.17252-0.48188-0.12614 0.72817l0.0211 0.17636 0.0298 0.0903zm0.0861 2.7653c0.091-0.72405-0.17215-0.0182 0 0zm3.4069-2.7979c0.10528-0.56972-0.18156-0.0934 0 0zm0.23964-6.013c0.10528-0.5697-0.18153-0.0934 0 0zm-0.019 4.3722c0.0469 0.47047 0.0916 0.88731 0.0864 0.17592 0.0287-0.6564-0.0186-1.3142-0.14419-1.959-0.016 0.59509-0.01 1.1911 0.0578 1.7831zm-0.0211 2.1163c0.44836 6.8e-4 -0.41271-0.40696 0 0zm-0.17933 3.7001c0.1085-0.44502-0.20129-0.22402 0 0zm0.24097-6.1244c0.1085-0.445-0.20132-0.224 0 0zm-6e-3 0.44554c0.1085-0.44507-0.20131-0.22394 0 0zm0.0994 1.0038c0.1085-0.44513-0.20131-0.22389 0 0zm4.2e-4 0.50361c0.10528-0.56972-0.18155-0.0934 0 0zm-0.01-0.72278c0.0351 1.4102 0.034-0.0736 7e-3 1.3368-0.0407-1.4947-0.0316-0.0942-0.0531-1.5892 3e-3 -0.0483-0.0112 0.43222 0.0456 0.25249zm-0.0158 0.5532c0.1085-0.44511-0.20132-0.22391 0 0zm-0.0365-0.21866c0.35312-0.50233-0.0416-2.2179-0.0504-0.76389 0.0126 0.25049-0.0311 0.52553 0.0504 0.76389zm3e-3 3.7577c0.21865-0.35494 0.25768-2.3802-0.0798-1.2482-4e-3 0.41228-0.0609 0.85391 0.0798 1.2482zm-8.385-6.7845c0.32146 0.88875-0.3346-0.32032 0 0zm7.7694-7.3804c0.30086 0.39566-0.1302 0.92661-0.0442 0.11998zm1.0655 5.118c0.23773 0.15917 0.13356 1.6482 0.119 0.77523-0.015-0.21366-0.0337-0.90754-0.23492-0.37438-4e-3 -0.0949-0.0822-0.43617 0.11592-0.40085zm0.0608-1.05c0.0759 0.49632-0.2023-0.0654-2e-5 0zm0.12194 2.7517c0.21001 0.36603-8e-3 2.1552-0.10402 0.92212 0.0126-0.0503-0.0343-1.6528 0.10402-0.92212zm-0.0459 4.7345c0.1393 0.5573-0.15801 1.0844-0.0916 0.22171-6e-3 -0.27974 0.0195-0.85119 0.0916-0.22171zm0.24715-1.5265c0.0683 0.4453-0.0735 1.2698-0.049 0.35897 4.2e-4 -8e-3 8e-3 -0.73483 0.049-0.35897z" fill="#fff" stroke-width=".11139"/>
	</g>
</svg>
